<?xml version="1.0" encoding="UTF-8"?>
<svg width="48px" height="48px" viewBox="0 0 48 48" version="1.1" xmlns="http://www.w3.org/2000/svg" xmlns:xlink="http://www.w3.org/1999/xlink">
    <!-- Generator: Sketch 45.2 (43514) - http://www.bohemiancoding.com/sketch -->
    <title>icon_profile</title>
    <desc>Created with Sketch.</desc>
    <defs>
        <path d="M28.8,31.9963005 C24.787704,35.0120712 19.8010084,36.8 14.4,36.8 C8.99899165,36.8 4.01229598,35.0120712 0,31.9963005 L0,-2.08103671e-05 L28.8,-2.08103671e-05 L28.8,31.9963005 L28.8,31.9963005 Z" id="path-1"></path>
    </defs>
    <g id="Symbols" stroke="none" stroke-width="1" fill="none" fill-rule="evenodd">
        <g id="[Icon-Base]" transform="translate(-208.000000, -80.000000)">
            <g id="icon/profile" transform="translate(208.000000, 80.000000)">
                <g id="Page-1">
                    <path d="M24,0 C37.246,0 48,10.754 48,24 C48,37.246 37.246,48 24,48 C10.754,48 0,37.246 0,24 C0,10.754 10.754,0 24,0 Z" id="Fill-1" fill="#FFFFFF"></path>
                    <g id="Group-4" transform="translate(9.600000, 11.200000)">
                        <mask id="mask-2" fill="white">
                            <use xlink:href="#path-1"></use>
                        </mask>
                        <g id="Clip-3"></g>
                        <path d="M13.56752,14.42368 C13.82928,14.40872 15.14888,14.36344 15.48192,14.3028 C15.89296,14.228 16.296,14.10968 16.68224,13.95032 C17.00656,13.81656 17.31904,13.654 17.61496,13.46544 C17.94512,13.25512 18.25464,13.01248 18.538,12.7424 C19.0616,12.24304 19.49488,11.64992 19.80912,10.99808 C19.94664,10.7128 20.06144,10.41664 20.15176,10.11312 C20.23496,9.83368 20.29752,9.54816 20.33888,9.2596 C20.37872,8.98144 20.39896,8.70056 20.39984,8.4196 C20.40112,8.00056 20.35944,7.58152 20.27408,7.17128 C20.15712,6.6092 19.95808,6.06472 19.68544,5.55952 C19.38208,4.99744 18.98864,4.48456 18.52504,4.04528 C18.03888,3.58456 17.4764,3.2052 16.86616,2.92912 C16.40752,2.7216 15.92272,2.5728 15.42664,2.48736 C15.20864,2.44976 14.98856,2.42432 14.76776,2.41104 C14.65832,2.4044 14.54864,2.40096 14.43896,2.40008 C14.41944,2.4 14.39984,2.4 14.38032,2.4 C14.27048,2.40056 14.16072,2.40368 14.05104,2.40992 C13.83632,2.42216 13.62224,2.44584 13.41008,2.48104 C12.90712,2.56448 12.41528,2.71296 11.95008,2.92168 C11.33904,3.19584 10.77536,3.57352 10.28792,4.0328 C9.82736,4.46664 9.43544,4.97272 9.1316,5.52776 C8.85608,6.03096 8.65368,6.57384 8.53336,7.13472 C8.3852,7.82504 8.36024,8.54192 8.45824,9.24104 C8.54176,9.83776 8.71648,10.42096 8.97488,10.9652 C9.26968,11.58632 9.67224,12.15528 10.15832,12.64136 L8.46128,14.3384 C8.15216,14.02936 7.86712,13.69632 7.60952,13.34328 C7.31568,12.94048 7.05768,12.51168 6.83984,12.06328 C6.64928,11.67128 6.48952,11.26432 6.36256,10.84736 C6.2384,10.43952 6.1456,10.02216 6.08512,9.60024 C5.95504,8.69272 5.97352,7.7636 6.14056,6.86224 C6.28616,6.07632 6.54544,5.31224 6.90784,4.59992 C7.12224,4.1784 7.37232,3.7752 7.65448,3.39568 C7.94024,3.0112 8.2588,2.6512 8.60552,2.32064 C8.9464,1.9956 9.31448,1.69912 9.70472,1.43536 C10.09032,1.1748 10.4976,0.94616 10.92104,0.75304 C11.57984,0.45256 12.27744,0.23848 12.99136,0.11776 C13.27912,0.06912 13.56944,0.03552 13.86072,0.01704 C14.01312,0.00736 14.16576,0.00208 14.31848,0.00032 C14.35464,8e-05 14.3908,-8e-05 14.42704,1.31759126e-14 C14.57992,0.00072 14.7328,0.00512 14.88544,0.01384 C15.1772,0.03048 15.468,0.06224 15.7564,0.10912 C16.4716,0.22544 17.17112,0.43536 17.83216,0.732 C18.67928,1.11216 19.46152,1.634 20.1392,2.26864 C20.834,2.91936 21.41768,3.68752 21.85696,4.532 C22.22544,5.2404 22.4916,6.00128 22.64448,6.78496 C22.82168,7.6932 22.84744,8.63112 22.72192,9.54784 C22.66408,9.97064 22.57384,10.38888 22.45208,10.79784 C22.3276,11.21584 22.17024,11.624 21.982,12.01736 C21.7668,12.46728 21.51128,12.89776 21.21984,13.30232 C20.92504,13.7116 20.59344,14.09424 20.23056,14.44448 C19.8552,14.80656 19.4464,15.13392 19.01088,15.42072 C18.57912,15.70496 18.12128,15.94936 17.64464,16.14936 C17.12016,16.36944 16.57312,16.53568 16.01488,16.64456 C15.58432,16.72856 13.87216,16.8096 13.66608,16.822 C13.23704,16.84792 12.80944,16.89664 12.38568,16.96832 C11.3912,17.13648 10.4188,17.4316 9.49864,17.84448 C8.90296,18.11184 8.32936,18.42808 7.78512,18.7888 C7.2236,19.16096 6.69344,19.58032 6.20168,20.04088 C5.7104,20.50104 5.25744,21.00224 4.84936,21.53768 C4.44,22.0748 4.07584,22.6464 3.76232,23.24464 C3.50272,23.73984 3.278,24.25328 3.09048,24.78008 C2.89624,25.32592 2.74192,25.88592 2.6292,26.45424 C2.47864,27.21344 2.40256,27.98712 2.40008,28.76112 C2.39816,29.34832 2.43856,29.93568 2.52192,30.517032 C2.60816,31.119096 2.74056,31.714512 2.91768,32.296352 C3.09528,32.879632 3.318,33.449128 3.5828,33.998344 C3.89736,34.6508 4.27136,35.27448 4.69832,35.859616 C5.1164,36.432672 5.58504,36.968776 6.09696,37.459792 C6.61792,37.959416 7.18352,38.412344 7.78512,38.811112 C8.42056,39.23228 9.09608,39.592816 9.8,39.88568 C10.54928,40.197472 11.33048,40.432184 12.1276,40.585072 C12.876,40.728624 13.638,40.79996 14.4,40.79996 C15.162,40.79996 15.924,40.728624 16.6724,40.585072 C17.46952,40.432184 18.25072,40.19748 19.00008,39.88568 C19.70392,39.592816 20.37944,39.23228 21.01488,38.811112 C21.61648,38.412352 22.18208,37.959416 22.70304,37.459792 C23.24968,36.935472 23.74704,36.35976 24.18608,35.742512 C24.57808,35.19144 24.9236,34.607384 25.21728,33.99824 C25.48744,33.438056 25.71368,32.856688 25.89296,32.261176 C26.06472,31.690512 26.1936,31.106976 26.27808,30.517032 C26.3596,29.94856 26.4,29.37424 26.4,28.8 C26.4,28.02552 26.3264,27.25112 26.17808,26.49104 C26.08112,25.99416 25.95248,25.50352 25.79304,25.02312 C25.60528,24.45704 25.37472,23.90528 25.1044,23.37368 C24.80344,22.78216 24.4532,22.21576 24.05888,21.68192 C23.63032,21.10184 23.14968,20.56024 22.62464,20.06568 C22.12552,19.59544 21.58648,19.16768 21.01488,18.7888 C20.81384,18.6556 20.6088,18.5284 20.40008,18.40752 L21.6,16.3292 C21.6,16.3292 21.71288,16.36936 22.37688,16.81232 C23.06056,17.26848 23.7052,17.78304 24.30176,18.3484 C24.89784,18.91336 25.44576,19.52888 25.93768,20.18648 C26.43184,20.84712 26.86944,21.55016 27.24352,22.28552 C27.55504,22.89792 27.82248,23.53272 28.04288,24.18352 C28.25704,24.816 28.4268,25.46344 28.55056,26.1196 C28.71704,27.00272 28.8,27.90128 28.8,28.8 C28.8,29.47304 28.7536,30.146104 28.66016,30.812672 C28.55872,31.536736 28.40184,32.252984 28.19104,32.953072 C27.97552,33.668744 27.70368,34.367392 27.37912,35.04064 C27.00784,35.810568 26.56768,36.547128 26.066,37.239144 C25.55856,37.939112 24.98824,38.593424 24.36432,39.19188 C23.71904,39.810776 23.01656,40.369848 22.26832,40.859304 C21.52664,41.344464 20.74024,41.761088 19.922,42.101528 C19.02136,42.47624 18.08248,42.758352 17.12448,42.942112 C16.2272,43.114232 15.3136,43.19996 14.4,43.19996 C13.4864,43.19996 12.5728,43.114232 11.67552,42.942112 C10.71752,42.758352 9.77864,42.47624 8.878,42.101528 C8.05976,41.761088 7.27336,41.344464 6.53168,40.859304 C5.78344,40.369848 5.08096,39.810776 4.43568,39.19188 C3.81176,38.593424 3.24144,37.939112 2.734,37.239144 C2.23232,36.547128 1.79216,35.810568 1.42088,35.04064 C1.09632,34.367392 0.82448,33.668744 0.60896,32.953072 C0.39816,32.252984 0.24128,31.536736 0.13984,30.812672 C0.0464,30.146104 0,29.47304 0,28.8 C0,27.90128 0.08296,27.00272 0.24944,26.1196 C0.3732,25.46344 0.54296,24.816 0.75712,24.18352 C0.97752,23.53272 1.24496,22.89792 1.55648,22.28552 C1.93056,21.55016 2.36816,20.84712 2.86232,20.18648 C3.35424,19.52888 3.90216,18.91336 4.49824,18.3484 C5.0948,17.78304 5.73944,17.26848 6.42312,16.81232 C7.08712,16.36936 7.78784,15.98168 8.51608,15.65488 C9.09176,15.39648 9.68456,15.17624 10.28936,14.99624 C10.8748,14.82184 11.47152,14.6852 12.07448,14.58712 C12.56888,14.50672 13.06744,14.45224 13.56752,14.42368 Z" id="Fill-2" fill="#37B34A" mask="url(#mask-2)"></path>
                    </g>
                    <path d="M24.0388,0 L24.0776,0.00016 L24.11632,0.00024 L24.15512,0.00048 L24.19384,0.0008 L24.23256,0.00112 L24.27128,0.00152 L24.31,0.002 L24.34864,0.00248 L24.38736,0.00304 L24.426,0.00368 L24.46464,0.0044 L24.50328,0.0052 L24.54184,0.006 L24.58048,0.00688 L24.61904,0.00784 L24.6576,0.00888 L24.69616,0.00992 L24.73472,0.01104 L24.7732,0.01224 L24.81176,0.01352 L24.85024,0.0148 L24.88872,0.01616 L24.92712,0.0176 L24.9656,0.01912 L25.004,0.02064 L25.0424,0.02224 L25.0808,0.02392 L25.1192,0.02568 L25.1576,0.02752 L25.19592,0.02936 L25.23424,0.03128 L25.27256,0.0332 L25.31088,0.03528 L25.3492,0.03736 L25.38744,0.03952 L25.42568,0.04176 L25.46392,0.044 L25.50216,0.04632 L25.5404,0.04872 L25.57856,0.0512 L25.61672,0.05368 L25.65488,0.05624 L25.69304,0.05888 L25.73112,0.0616 L25.76928,0.06432 L25.80736,0.0672 L25.84544,0.07 L25.88352,0.07296 L25.92152,0.07592 L25.9596,0.07904 L25.9976,0.08208 L26.0356,0.08528 L26.07352,0.08848 L26.11152,0.09176 L26.14944,0.09512 L26.18736,0.09856 L26.22528,0.102 L26.2632,0.10552 L26.30104,0.10912 L26.33896,0.11272 L26.3768,0.1164 L26.41456,0.12016 L26.4524,0.124 L26.49016,0.12784 L26.528,0.13184 L26.60344,0.13984 L26.67888,0.14816 L26.75424,0.15664 L26.82952,0.16536 L26.90472,0.17432 L26.97992,0.18352 L27.05496,0.19296 L27.12992,0.20264 L27.20488,0.21256 L27.27976,0.22264 L27.35456,0.23304 L27.4292,0.2436 L27.50384,0.2544 L27.5784,0.26544 L27.65288,0.27672 L27.72736,0.28824 L27.80168,0.3 L27.87592,0.31192 L27.95008,0.32416 L28.02424,0.33656 L28.09824,0.3492 L28.17224,0.36208 L28.24608,0.37512 L28.31992,0.38848 L28.3936,0.402 L28.46728,0.41576 L28.5408,0.42976 L28.61432,0.444 L28.68768,0.4584 L28.76104,0.47304 L28.83432,0.48792 L28.90744,0.50304 L28.98056,0.5184 L29.05352,0.53392 L29.12648,0.54976 L29.19928,0.56568 L29.27208,0.58192 L29.34472,0.5984 L29.41736,0.61504 L29.48984,0.63192 L29.56224,0.64896 L29.63456,0.66632 L29.70688,0.68384 L29.77904,0.7016 L29.85112,0.71952 L29.92312,0.73776 L29.99504,0.75616 L30.0668,0.77472 L30.13856,0.7936 L30.21024,0.81264 L30.28176,0.83192 L30.35328,0.85136 L30.42464,0.87104 L30.49592,0.89096 L30.56712,0.91112 L30.63824,0.93144 L30.70928,0.952 L30.78024,0.97272 L30.85112,0.99376 L30.92184,1.01496 L30.99248,1.03632 L31.06312,1.05792 L31.1336,1.07976 L31.204,1.10176 L31.27424,1.124 L31.34448,1.14648 L31.41456,1.16912 L31.48456,1.192 L31.55448,1.21512 L31.62432,1.2384 L31.69408,1.26192 L31.76368,1.2856 L31.83328,1.30952 L31.90272,1.3336 L31.972,1.35792 L32.04128,1.38248 L32.1104,1.4072 L32.17952,1.43216 L32.24848,1.45728 L32.31728,1.48264 L32.38608,1.50824 L32.45472,1.534 L32.52328,1.55992 L32.59176,1.58608 L32.66008,1.61248 L32.7284,1.63904 L32.79656,1.66584 L32.86456,1.6928 L32.93256,1.72 L33.0004,1.74736 L33.06816,1.77496 L33.13584,1.80272 L33.20336,1.83072 L33.2708,1.85888 L33.33816,1.88728 L33.40536,1.91584 L33.47248,1.94464 L33.53952,1.9736 L33.60648,2.0028 L33.67328,2.03216 L33.74,2.06176 L33.80656,2.09152 L33.87304,2.12144 L33.93944,2.1516 L34.00576,2.182 L34.07192,2.21248 L34.138,2.24328 L34.20392,2.27416 L34.26976,2.30536 L34.33552,2.33664 L34.40112,2.36816 L34.46664,2.39992 L34.53208,2.43176 L34.59736,2.46392 L34.66256,2.49616 L34.7276,2.52864 L34.79256,2.56136 L34.85736,2.59416 L34.92216,2.6272 L34.98672,2.66048 L35.05128,2.69392 L35.11568,2.72752 L35.17992,2.76136 L35.24408,2.79536 L35.30816,2.82952 L35.37208,2.86392 L35.43592,2.89848 L35.4996,2.9332 L35.5632,2.96816 L35.62664,3.00328 L35.69,3.03856 L35.7532,3.07408 L35.81632,3.10976 L35.87936,3.1456 L35.94224,3.18168 L36.00496,3.21792 L36.0676,3.25432 L36.13016,3.29088 L36.19256,3.32768 L36.2548,3.36464 L36.31696,3.40176 L36.37904,3.43912 L36.44096,3.47664 L36.50272,3.51432 L36.5644,3.55216 L36.62592,3.59024 L36.68736,3.62848 L36.74864,3.66688 L36.80984,3.70544 L36.87088,3.74424 L36.93184,3.7832 L36.99264,3.82232 L37.05328,3.8616 L37.11384,3.90112 L37.17432,3.9408 L37.23456,3.98056 L37.2948,4.02064 L37.3548,4.0608 L37.41472,4.1012 L37.47448,4.14168 L37.53416,4.1824 L37.59368,4.22328 L37.65312,4.2644 L37.7124,4.3056 L37.77152,4.34704 L37.83056,4.38856 L37.88944,4.43032 L37.94816,4.47224 L38.0068,4.5144 L38.06528,4.55664 L38.12368,4.59912 L38.18192,4.64168 L38.24,4.68448 L38.29792,4.72744 L38.35576,4.77056 L38.41344,4.81384 L38.47104,4.85728 L38.52848,4.90096 L38.58576,4.94472 L38.64288,4.98872 L38.69992,5.0328 L38.7568,5.07712 L38.81352,5.1216 L38.87016,5.16624 L38.92664,5.21104 L38.98296,5.256 L39.03912,5.30112 L39.0952,5.3464 L39.15112,5.39192 L39.20688,5.43752 L39.26256,5.48328 L39.31808,5.52928 L39.37344,5.57536 L39.42864,5.62168 L39.48368,5.66808 L39.53864,5.71472 L39.59344,5.76144 L39.64808,5.8084 L39.70264,5.85544 L39.75696,5.90272 L39.8112,5.95008 L39.86528,5.99768 L39.9192,6.04536 L39.97304,6.09328 L40.02664,6.14128 L40.08016,6.18952 L40.13352,6.23784 L40.18672,6.2864 L40.23984,6.33504 L40.29272,6.38392 L40.34552,6.43288 L40.39816,6.482 L40.45064,6.53128 L40.50296,6.5808 L40.55512,6.6304 L40.6072,6.68016 L40.65904,6.73008 L40.7108,6.78016 L40.7624,6.83032 L40.81384,6.88072 L40.86512,6.93128 L40.91624,6.98192 L40.9672,7.0328 L41.01808,7.08376 L41.06872,7.13488 L41.11928,7.18616 L41.16968,7.2376 L41.21984,7.2892 L41.26992,7.34096 L41.31984,7.3928 L41.3696,7.44488 L41.4192,7.49704 L41.46872,7.54936 L41.518,7.60184 L41.56712,7.65448 L41.61608,7.70728 L41.66496,7.76016 L41.7136,7.81328 L41.76216,7.86648 L41.81048,7.91984 L41.85872,7.97336 L41.90672,8.02696 L41.95464,8.0808 L42.00232,8.13472 L42.04992,8.1888 L42.09728,8.24304 L42.14456,8.29736 L42.1916,8.35192 L42.23856,8.40656 L42.28528,8.46136 L42.33192,8.51632 L42.37832,8.57136 L42.42464,8.62656 L42.47072,8.68192 L42.51672,8.73744 L42.56248,8.79312 L42.60808,8.84888 L42.6536,8.9048 L42.69888,8.96088 L42.744,9.01704 L42.78896,9.07336 L42.83376,9.12984 L42.8784,9.18648 L42.92288,9.2432 L42.9672,9.30008 L43.01128,9.35712 L43.05528,9.41424 L43.09904,9.47152 L43.14272,9.52896 L43.18616,9.58656 L43.22944,9.64424 L43.27256,9.70208 L43.31552,9.76 L43.35832,9.81808 L43.40088,9.87632 L43.44336,9.93472 L43.4856,9.9932 L43.52776,10.05184 L43.56968,10.11056 L43.61144,10.16944 L43.65296,10.22848 L43.6944,10.2876 L43.7356,10.34688 L43.77672,10.40632 L43.8176,10.46584 L43.85832,10.52552 L43.8988,10.58528 L43.9392,10.6452 L43.97936,10.7052 L44.01944,10.76544 L44.0592,10.82568 L44.09888,10.88616 L44.1384,10.94672 L44.17768,11.00736 L44.2168,11.06816 L44.25576,11.12912 L44.29456,11.19016 L44.33312,11.25136 L44.37152,11.31264 L44.40976,11.37408 L44.44784,11.4356 L44.48568,11.49728 L44.52336,11.55904 L44.56088,11.62096 L44.59824,11.68304 L44.63536,11.7452 L44.67232,11.80744 L44.70912,11.86984 L44.74568,11.9324 L44.78208,11.99504 L44.81832,12.05776 L44.8544,12.12064 L44.89024,12.18368 L44.92592,12.2468 L44.96144,12.31 L44.99672,12.37336 L45.03184,12.4368 L45.0668,12.5004 L45.10152,12.56408 L45.13608,12.62792 L45.17048,12.69184 L45.20464,12.75592 L45.23864,12.82008 L45.27248,12.88432 L45.30608,12.94872 L45.33952,13.01328 L45.3728,13.07784 L45.40584,13.14264 L45.43864,13.20744 L45.47136,13.2724 L45.50384,13.33744 L45.53608,13.40264 L45.56824,13.46792 L45.60008,13.53336 L45.63184,13.59888 L45.66336,13.66448 L45.69464,13.73024 L45.72584,13.79608 L45.75672,13.862 L45.78752,13.92808 L45.818,13.99424 L45.8484,14.06056 L45.87856,14.12696 L45.90848,14.19344 L45.93824,14.26 L45.96784,14.32672 L45.9972,14.39352 L46.0264,14.46048 L46.05536,14.52752 L46.08416,14.59464 L46.11272,14.66184 L46.14112,14.7292 L46.16928,14.79664 L46.19728,14.86416 L46.22504,14.93184 L46.25264,14.9996 L46.28,15.06744 L46.3072,15.13544 L46.33416,15.20344 L46.36096,15.2716 L46.38752,15.33992 L46.41392,15.40824 L46.44008,15.47672 L46.466,15.54528 L46.49176,15.61392 L46.51736,15.68272 L46.54272,15.75152 L46.56784,15.82048 L46.5928,15.8896 L46.61752,15.95872 L46.64208,16.028 L46.6664,16.09728 L46.69048,16.16672 L46.7144,16.23632 L46.73808,16.30592 L46.7616,16.37568 L46.78488,16.44552 L46.808,16.51544 L46.83088,16.58544 L46.85352,16.65552 L46.876,16.72576 L46.89824,16.796 L46.92024,16.8664 L46.94208,16.93688 L46.96368,17.00752 L46.98504,17.07816 L47.00624,17.14888 L47.02728,17.21976 L47.048,17.29072 L47.06856,17.36176 L47.08888,17.43288 L47.10904,17.50408 L47.12896,17.57536 L47.14864,17.64672 L47.16808,17.71824 L47.18736,17.78976 L47.2064,17.86144 L47.22528,17.9332 L47.24384,18.00496 L47.26224,18.07688 L47.28048,18.14888 L47.2984,18.22096 L47.31616,18.29312 L47.33368,18.36544 L47.35104,18.43776 L47.36808,18.51016 L47.38496,18.58264 L47.4016,18.65528 L47.41808,18.72792 L47.43432,18.80072 L47.45024,18.87352 L47.46608,18.94648 L47.4816,19.01944 L47.49696,19.09256 L47.51208,19.16568 L47.52696,19.23896 L47.5416,19.31232 L47.556,19.38568 L47.57024,19.4592 L47.58424,19.53272 L47.598,19.6064 L47.61152,19.68008 L47.62488,19.75392 L47.63792,19.82776 L47.6508,19.90176 L47.66344,19.97576 L47.67584,20.04992 L47.68808,20.12408 L47.7,20.19832 L47.71176,20.27264 L47.72328,20.34712 L47.73456,20.4216 L47.7456,20.49616 L47.7564,20.5708 L47.76696,20.64544 L47.77736,20.72024 L47.78744,20.79512 L47.79736,20.87008 L47.80704,20.94504 L47.81648,21.02008 L47.82568,21.09528 L47.83464,21.17048 L47.84336,21.24576 L47.85184,21.32112 L47.86016,21.39656 L47.86816,21.472 L47.87216,21.50984 L47.876,21.5476 L47.87984,21.58544 L47.8836,21.6232 L47.88728,21.66104 L47.89088,21.69896 L47.89448,21.7368 L47.898,21.77472 L47.90144,21.81264 L47.90488,21.85056 L47.90824,21.88848 L47.91152,21.92648 L47.91472,21.9644 L47.91792,22.0024 L47.92096,22.0404 L47.92408,22.07848 L47.92704,22.11648 L47.93,22.15456 L47.9328,22.19264 L47.93568,22.23072 L47.9384,22.26888 L47.94112,22.30696 L47.94376,22.34512 L47.94632,22.38328 L47.9488,22.42144 L47.95128,22.4596 L47.95368,22.49784 L47.956,22.53608 L47.95824,22.57432 L47.96048,22.61256 L47.96264,22.6508 L47.96472,22.68912 L47.9668,22.72744 L47.96872,22.76576 L47.97064,22.80408 L47.97248,22.8424 L47.97432,22.8808 L47.97608,22.9192 L47.97776,22.9576 L47.97936,22.996 L47.98088,23.0344 L47.9824,23.07288 L47.98384,23.11128 L47.9852,23.14976 L47.98648,23.18824 L47.98776,23.2268 L47.98896,23.26528 L47.99008,23.30384 L47.99112,23.3424 L47.99216,23.38096 L47.99312,23.41952 L47.994,23.45816 L47.9948,23.49672 L47.9956,23.53536 L47.99632,23.574 L47.99696,23.61264 L47.99752,23.65136 L47.998,23.69 L47.99848,23.72872 L47.99888,23.76744 L47.9992,23.80616 L47.99952,23.84488 L47.99976,23.88368 L47.99984,23.9224 L48,23.9612 L48,24 L48,24.0388 L47.99984,24.0776 L47.99976,24.11632 L47.99952,24.15512 L47.9992,24.19384 L47.99888,24.23256 L47.99848,24.27128 L47.998,24.31 L47.99752,24.34864 L47.99696,24.38736 L47.99632,24.426 L47.9956,24.46464 L47.9948,24.50328 L47.994,24.54184 L47.99312,24.58048 L47.99216,24.61904 L47.99112,24.6576 L47.99008,24.69616 L47.98896,24.73472 L47.98776,24.7732 L47.98648,24.81176 L47.9852,24.85024 L47.98384,24.88872 L47.9824,24.92712 L47.98088,24.9656 L47.97936,25.004 L47.97776,25.0424 L47.97608,25.0808 L47.97432,25.1192 L47.97248,25.1576 L47.97064,25.19592 L47.96872,25.23424 L47.9668,25.27256 L47.96472,25.31088 L47.96264,25.3492 L47.96048,25.38744 L47.95824,25.42568 L47.956,25.46392 L47.95368,25.50216 L47.95128,25.5404 L47.9488,25.57856 L47.94632,25.61672 L47.94376,25.65488 L47.94112,25.69304 L47.9384,25.73112 L47.93568,25.76928 L47.9328,25.80736 L47.93,25.84544 L47.92704,25.88352 L47.92408,25.92152 L47.92096,25.9596 L47.91792,25.9976 L47.91472,26.0356 L47.91152,26.07352 L47.90824,26.11152 L47.90488,26.14944 L47.90144,26.18736 L47.898,26.22528 L47.89448,26.2632 L47.89088,26.30104 L47.88728,26.33896 L47.8836,26.3768 L47.87984,26.41456 L47.876,26.4524 L47.87216,26.49016 L47.86816,26.528 L47.86016,26.60344 L47.85184,26.67888 L47.84336,26.75424 L47.83464,26.82952 L47.82568,26.90472 L47.81648,26.97992 L47.80704,27.05496 L47.79736,27.12992 L47.78744,27.20488 L47.77736,27.27976 L47.76696,27.35456 L47.7564,27.4292 L47.7456,27.50384 L47.73456,27.5784 L47.72328,27.65288 L47.71176,27.72736 L47.7,27.80168 L47.68808,27.87592 L47.67584,27.95008 L47.66344,28.02424 L47.6508,28.09824 L47.63792,28.17224 L47.62488,28.24608 L47.61152,28.31992 L47.598,28.3936 L47.58424,28.46728 L47.57024,28.5408 L47.556,28.61432 L47.5416,28.68768 L47.52696,28.76104 L47.51208,28.83432 L47.49696,28.90744 L47.4816,28.98056 L47.46608,29.05352 L47.45024,29.12648 L47.43432,29.19928 L47.41808,29.27208 L47.4016,29.34472 L47.38496,29.41736 L47.36808,29.48984 L47.35104,29.56224 L47.33368,29.63456 L47.31616,29.70688 L47.2984,29.77904 L47.28048,29.85112 L47.26224,29.92312 L47.24384,29.99504 L47.22528,30.0668 L47.2064,30.13856 L47.18736,30.21024 L47.16808,30.28176 L47.14864,30.35328 L47.12896,30.42464 L47.10904,30.49592 L47.08888,30.56712 L47.06856,30.63824 L47.048,30.70928 L47.02728,30.78024 L47.00624,30.85112 L46.98504,30.92184 L46.96368,30.99248 L46.94208,31.06312 L46.92024,31.1336 L46.89824,31.204 L46.876,31.27424 L46.85352,31.34448 L46.83088,31.41456 L46.808,31.48456 L46.78488,31.55448 L46.7616,31.62432 L46.73808,31.69408 L46.7144,31.76368 L46.69048,31.83328 L46.6664,31.90272 L46.64208,31.972 L46.61752,32.04128 L46.5928,32.1104 L46.56784,32.17952 L46.54272,32.24848 L46.51736,32.31728 L46.49176,32.38608 L46.466,32.45472 L46.44008,32.52328 L46.41392,32.59176 L46.38752,32.66008 L46.36096,32.7284 L46.33416,32.79656 L46.3072,32.86456 L46.28,32.93256 L46.25264,33.0004 L46.22504,33.06816 L46.19728,33.13584 L46.16928,33.20336 L46.14112,33.2708 L46.11272,33.33816 L46.08416,33.40536 L46.05536,33.47248 L46.0264,33.53952 L45.9972,33.60648 L45.96784,33.67328 L45.93824,33.74 L45.90848,33.80656 L45.87856,33.87304 L45.8484,33.93944 L45.818,34.00576 L45.78752,34.07192 L45.75672,34.138 L45.72584,34.20392 L45.69464,34.26976 L45.66336,34.33552 L45.63184,34.40112 L45.60008,34.46664 L45.56824,34.53208 L45.53608,34.59736 L45.50384,34.66256 L45.47136,34.7276 L45.43864,34.79256 L45.40584,34.85736 L45.3728,34.92216 L45.33952,34.98672 L45.30608,35.05128 L45.27248,35.11568 L45.23864,35.17992 L45.20464,35.24408 L45.17048,35.30816 L45.13608,35.37208 L45.10152,35.43592 L45.0668,35.4996 L45.03184,35.5632 L44.99672,35.62664 L44.96144,35.69 L44.92592,35.7532 L44.89024,35.81632 L44.8544,35.87936 L44.81832,35.94224 L44.78208,36.00496 L44.74568,36.0676 L44.70912,36.13016 L44.67232,36.19256 L44.63536,36.2548 L44.59824,36.31696 L44.56088,36.37904 L44.52336,36.44096 L44.48568,36.50272 L44.44784,36.5644 L44.40976,36.62592 L44.37152,36.68736 L44.33312,36.74864 L44.29456,36.80984 L44.25576,36.87088 L44.2168,36.93184 L44.17768,36.99264 L44.1384,37.05328 L44.09888,37.11384 L44.0592,37.17432 L44.01944,37.23456 L43.97936,37.2948 L43.9392,37.3548 L43.8988,37.41472 L43.85832,37.47448 L43.8176,37.53416 L43.77672,37.59368 L43.7356,37.65312 L43.6944,37.7124 L43.65296,37.77152 L43.61144,37.83056 L43.56968,37.88944 L43.52776,37.94816 L43.4856,38.0068 L43.44336,38.06528 L43.40088,38.12368 L43.35832,38.18192 L43.31552,38.24 L43.27256,38.29792 L43.22944,38.35576 L43.18616,38.41344 L43.14272,38.47104 L43.09904,38.52848 L43.05528,38.58576 L43.01128,38.64288 L42.9672,38.69992 L42.92288,38.7568 L42.8784,38.81352 L42.83376,38.87016 L42.78896,38.92664 L42.744,38.98296 L42.69888,39.03912 L42.6536,39.0952 L42.60808,39.15112 L42.56248,39.20688 L42.51672,39.26256 L42.47072,39.31808 L42.42464,39.37344 L42.37832,39.42864 L42.33192,39.48368 L42.28528,39.53864 L42.23856,39.59344 L42.1916,39.64808 L42.14456,39.70264 L42.09728,39.75696 L42.04992,39.8112 L42.00232,39.86528 L41.95464,39.9192 L41.90672,39.97304 L41.85872,40.02664 L41.81048,40.08016 L41.76216,40.13352 L41.7136,40.18672 L41.66496,40.23984 L41.61608,40.29272 L41.56712,40.34552 L41.518,40.39816 L41.46872,40.45064 L41.4192,40.50296 L41.3696,40.55512 L41.31984,40.6072 L41.26992,40.65904 L41.21984,40.7108 L41.16968,40.7624 L41.11928,40.81384 L41.06872,40.86512 L41.01808,40.91624 L40.9672,40.9672 L40.91624,41.01808 L40.86512,41.06872 L40.81384,41.11928 L40.7624,41.16968 L40.7108,41.21988 L40.65904,41.269952 L40.6072,41.319864 L40.55512,41.369624 L40.50296,41.419232 L40.45064,41.468688 L40.39816,41.517984 L40.34552,41.567128 L40.29272,41.616112 L40.23984,41.664944 L40.18672,41.713616 L40.13352,41.762128 L40.08016,41.810488 L40.02664,41.858688 L39.97304,41.906728 L39.9192,41.954608 L39.86528,42.002336 L39.8112,42.049896 L39.75696,42.097304 L39.70264,42.144552 L39.64808,42.191632 L39.59344,42.23856 L39.53864,42.28532 L39.48368,42.33192 L39.42864,42.37836 L39.37344,42.424632 L39.31808,42.470752 L39.26256,42.516704 L39.20688,42.562488 L39.15112,42.608112 L39.0952,42.653568 L39.03912,42.698864 L38.98296,42.744 L38.92664,42.78896 L38.87016,42.83376 L38.81352,42.878392 L38.7568,42.922864 L38.69992,42.96716 L38.64288,43.011296 L38.58576,43.055264 L38.52848,43.099056 L38.47104,43.142688 L38.41344,43.186152 L38.35576,43.22944 L38.29792,43.272568 L38.24,43.31552 L38.18192,43.358304 L38.12368,43.400912 L38.06528,43.443352 L38.0068,43.485624 L37.94816,43.527728 L37.88944,43.569656 L37.83056,43.611408 L37.77152,43.652992 L37.7124,43.6944 L37.65312,43.735632 L37.59368,43.776696 L37.53416,43.817584 L37.47448,43.858296 L37.41472,43.89884 L37.3548,43.9392 L37.2948,43.979392 L37.23456,44.0194 L37.17432,44.05924 L37.11384,44.098896 L37.05328,44.138376 L36.99264,44.17768 L36.93184,44.216808 L36.87088,44.25576 L36.80984,44.294528 L36.74864,44.33312 L36.68736,44.371528 L36.62592,44.40976 L36.5644,44.447816 L36.50272,44.485688 L36.44096,44.523376 L36.37904,44.560888 L36.31696,44.598216 L36.2548,44.63536 L36.19256,44.67232 L36.13016,44.709104 L36.0676,44.745704 L36.00496,44.78212 L35.94224,44.818352 L35.87936,44.8544 L35.81632,44.890256 L35.7532,44.925936 L35.69,44.961432 L35.62664,44.996736 L35.5632,45.031856 L35.4996,45.066792 L35.43592,45.101544 L35.37208,45.136104 L35.30816,45.17048 L35.24408,45.204664 L35.17992,45.238664 L35.11568,45.272472 L35.05128,45.306088 L34.98672,45.33952 L34.92216,45.372768 L34.85736,45.405816 L34.79256,45.43868 L34.7276,45.471344 L34.66256,45.503824 L34.59736,45.536112 L34.53208,45.568208 L34.46664,45.600112 L34.40112,45.631824 L34.33552,45.663344 L34.26976,45.694672 L34.20392,45.7258 L34.138,45.756736 L34.07192,45.78748 L34.00576,45.818032 L33.93944,45.848384 L33.87304,45.878536 L33.80656,45.908504 L33.74,45.938264 L33.67328,45.967832 L33.60648,45.997208 L33.53952,46.026376 L33.47248,46.055352 L33.40536,46.084136 L33.33816,46.112712 L33.2708,46.141096 L33.20336,46.169272 L33.13584,46.197256 L33.06816,46.22504 L33.0004,46.252624 L32.93256,46.28 L32.86456,46.307184 L32.79656,46.33416 L32.7284,46.360936 L32.66008,46.387512 L32.59176,46.41388 L32.52328,46.440056 L32.45472,46.466016 L32.38608,46.491776 L32.31728,46.517336 L32.24848,46.542688 L32.17952,46.56784 L32.1104,46.592784 L32.04128,46.61752 L31.972,46.642056 L31.90272,46.666376 L31.83328,46.690496 L31.76368,46.714408 L31.69408,46.73812 L31.62432,46.761616 L31.55448,46.784904 L31.48456,46.807984 L31.41456,46.830856 L31.34448,46.85352 L31.27424,46.875968 L31.204,46.898216 L31.1336,46.920248 L31.06312,46.942072 L30.99248,46.96368 L30.92184,46.98508 L30.85112,47.006264 L30.78024,47.02724 L30.70928,47.048008 L30.63824,47.06856 L30.56712,47.088896 L30.49592,47.109016 L30.42464,47.128928 L30.35328,47.148624 L30.28176,47.168104 L30.21024,47.187368 L30.13856,47.206416 L30.0668,47.225248 L29.99504,47.243872 L29.92312,47.262272 L29.85112,47.280456 L29.77904,47.298416 L29.70688,47.316168 L29.63456,47.333696 L29.56224,47.351016 L29.48984,47.368104 L29.41736,47.384984 L29.34472,47.401632 L29.27208,47.418072 L29.19928,47.434288 L29.12648,47.45028 L29.05352,47.466056 L28.98056,47.4816 L28.90744,47.496936 L28.83432,47.51204 L28.76104,47.526928 L28.68768,47.541592 L28.61432,47.556032 L28.5408,47.57024 L28.46728,47.584232 L28.3936,47.598 L28.31992,47.611544 L28.24608,47.624864 L28.17224,47.637952 L28.09824,47.650824 L28.02424,47.663464 L27.95008,47.675872 L27.87592,47.688064 L27.80168,47.700016 L27.72736,47.711752 L27.65288,47.723256 L27.5784,47.734528 L27.50384,47.745576 L27.4292,47.756392 L27.35456,47.766976 L27.27976,47.777336 L27.20488,47.787464 L27.12992,47.79736 L27.05496,47.807024 L26.97992,47.816464 L26.90472,47.825664 L26.82952,47.834632 L26.75424,47.843376 L26.67888,47.85188 L26.60344,47.860152 L26.528,47.868192 L26.49016,47.87212 L26.4524,47.875992 L26.41456,47.879808 L26.3768,47.88356 L26.33896,47.887264 L26.30104,47.890896 L26.2632,47.89448 L26.22528,47.898 L26.18736,47.901464 L26.14944,47.904864 L26.11152,47.908208 L26.07352,47.911496 L26.0356,47.91472 L25.9976,47.917888 L25.9596,47.920992 L25.92152,47.92404 L25.88352,47.927032 L25.84544,47.92996 L25.80736,47.932832 L25.76928,47.935648 L25.73112,47.9384 L25.69304,47.941088 L25.65488,47.94372 L25.61672,47.946296 L25.57856,47.948808 L25.5404,47.951264 L25.50216,47.953656 L25.46392,47.955992 L25.42568,47.958272 L25.38744,47.960488 L25.3492,47.96264 L25.31088,47.964736 L25.27256,47.966768 L25.23424,47.968744 L25.19592,47.970664 L25.1576,47.97252 L25.1192,47.974312 L25.0808,47.976048 L25.0424,47.97772 L25.004,47.979336 L24.9656,47.980888 L24.92712,47.982384 L24.88872,47.983816 L24.85024,47.985192 L24.81176,47.986504 L24.7732,47.987752 L24.73472,47.988944 L24.69616,47.99008 L24.6576,47.991144 L24.61904,47.992152 L24.58048,47.993104 L24.54184,47.993992 L24.50328,47.994816 L24.46464,47.995584 L24.426,47.996288 L24.38736,47.996928 L24.34864,47.997512 L24.31,47.998032 L24.27128,47.998496 L24.23256,47.998896 L24.19384,47.999232 L24.15512,47.999512 L24.11632,47.99972 L24.0776,47.99988 L24.0388,47.999968 L24,48 L23.9612,47.999968 L23.9224,47.99988 L23.88368,47.99972 L23.84488,47.999512 L23.80616,47.999232 L23.76744,47.998896 L23.72872,47.998496 L23.69,47.998032 L23.65136,47.997512 L23.61264,47.996928 L23.574,47.996288 L23.53536,47.995584 L23.49672,47.994816 L23.45816,47.993992 L23.41952,47.993104 L23.38096,47.992152 L23.3424,47.991144 L23.30384,47.99008 L23.26528,47.988944 L23.2268,47.987752 L23.18824,47.986504 L23.14976,47.985192 L23.11128,47.983816 L23.07288,47.982384 L23.0344,47.980888 L22.996,47.979336 L22.9576,47.97772 L22.9192,47.976048 L22.8808,47.974312 L22.8424,47.97252 L22.80408,47.970664 L22.76576,47.968744 L22.72744,47.966768 L22.68912,47.964736 L22.6508,47.96264 L22.61256,47.960488 L22.57432,47.958272 L22.53608,47.955992 L22.49784,47.953656 L22.4596,47.951264 L22.42144,47.948808 L22.38328,47.946296 L22.34512,47.94372 L22.30696,47.941088 L22.26888,47.9384 L22.23072,47.935648 L22.19264,47.932832 L22.15456,47.92996 L22.11648,47.927032 L22.07848,47.92404 L22.0404,47.920992 L22.0024,47.917888 L21.9644,47.91472 L21.92648,47.911496 L21.88848,47.908208 L21.85056,47.904864 L21.81264,47.901464 L21.77472,47.898 L21.7368,47.89448 L21.69896,47.890896 L21.66104,47.887264 L21.6232,47.88356 L21.58544,47.879808 L21.5476,47.875992 L21.50984,47.87212 L21.472,47.868192 L21.39656,47.860152 L21.32112,47.85188 L21.24576,47.843376 L21.17048,47.834632 L21.09528,47.825664 L21.02008,47.816464 L20.94504,47.807024 L20.87008,47.79736 L20.79512,47.787464 L20.72024,47.777336 L20.64544,47.766976 L20.5708,47.756392 L20.49616,47.745576 L20.4216,47.734528 L20.34712,47.723256 L20.27264,47.711752 L20.19832,47.700016 L20.12408,47.688064 L20.04992,47.675872 L19.97576,47.663464 L19.90176,47.650824 L19.82776,47.637952 L19.75392,47.624864 L19.68008,47.611544 L19.6064,47.598 L19.53272,47.584232 L19.4592,47.57024 L19.38568,47.556032 L19.31232,47.541592 L19.23896,47.526928 L19.16568,47.51204 L19.09256,47.496936 L19.01944,47.4816 L18.94648,47.466056 L18.87352,47.45028 L18.80072,47.434288 L18.72792,47.418072 L18.65528,47.401632 L18.58264,47.384984 L18.51016,47.368104 L18.43776,47.351016 L18.36544,47.333696 L18.29312,47.316168 L18.22096,47.298416 L18.14888,47.280456 L18.07688,47.262272 L18.00496,47.243872 L17.9332,47.225248 L17.86144,47.206416 L17.78976,47.187368 L17.71824,47.168104 L17.64672,47.148624 L17.57536,47.128928 L17.50408,47.109016 L17.43288,47.088896 L17.36176,47.06856 L17.29072,47.048008 L17.21976,47.02724 L17.14888,47.006264 L17.07816,46.98508 L17.00752,46.96368 L16.93688,46.942072 L16.8664,46.920248 L16.796,46.898216 L16.72576,46.875968 L16.65552,46.85352 L16.58544,46.830856 L16.51544,46.807984 L16.44552,46.784904 L16.37568,46.761616 L16.30592,46.73812 L16.23632,46.714408 L16.16672,46.690496 L16.09728,46.666376 L16.028,46.642056 L15.95872,46.61752 L15.8896,46.592784 L15.82048,46.56784 L15.75152,46.542688 L15.68272,46.517336 L15.61392,46.491776 L15.54528,46.466016 L15.47672,46.440056 L15.40824,46.41388 L15.33992,46.387512 L15.2716,46.360936 L15.20344,46.33416 L15.13544,46.307184 L15.06744,46.28 L14.9996,46.252624 L14.93184,46.22504 L14.86416,46.197256 L14.79664,46.169272 L14.7292,46.141096 L14.66184,46.112712 L14.59464,46.084136 L14.52752,46.055352 L14.46048,46.026376 L14.39352,45.997208 L14.32672,45.967832 L14.26,45.938264 L14.19344,45.908504 L14.12696,45.878536 L14.06056,45.848384 L13.99424,45.818032 L13.92808,45.78748 L13.862,45.756736 L13.79608,45.7258 L13.73024,45.694672 L13.66448,45.663344 L13.59888,45.631824 L13.53336,45.600112 L13.46792,45.568208 L13.40264,45.536112 L13.33744,45.503824 L13.2724,45.471344 L13.20744,45.43868 L13.14264,45.405816 L13.07784,45.372768 L13.01328,45.33952 L12.94872,45.306088 L12.88432,45.272472 L12.82008,45.238664 L12.75592,45.204664 L12.69184,45.17048 L12.62792,45.136104 L12.56408,45.101544 L12.5004,45.066792 L12.4368,45.031856 L12.37336,44.996736 L12.31,44.961432 L12.2468,44.925936 L12.18368,44.890256 L12.12064,44.8544 L12.05776,44.818352 L11.99504,44.78212 L11.9324,44.745704 L11.86984,44.709104 L11.80744,44.67232 L11.7452,44.63536 L11.68304,44.598216 L11.62096,44.560888 L11.55904,44.523376 L11.49728,44.485688 L11.4356,44.447816 L11.37408,44.40976 L11.31264,44.371528 L11.25136,44.33312 L11.19016,44.294528 L11.12912,44.25576 L11.06816,44.216808 L11.00736,44.17768 L10.94672,44.138376 L10.88616,44.098896 L10.82568,44.05924 L10.76544,44.0194 L10.7052,43.979392 L10.6452,43.9392 L10.58528,43.89884 L10.52552,43.858296 L10.46584,43.817584 L10.40632,43.776696 L10.34688,43.735632 L10.2876,43.6944 L10.22848,43.652992 L10.16944,43.611408 L10.11056,43.569656 L10.05184,43.527728 L9.9932,43.485624 L9.93472,43.443352 L9.87632,43.400912 L9.81808,43.358304 L9.76,43.31552 L9.70208,43.272568 L9.64424,43.22944 L9.58656,43.186152 L9.52896,43.142688 L9.47152,43.099056 L9.41424,43.055264 L9.35712,43.011296 L9.30008,42.96716 L9.2432,42.922864 L9.18648,42.878392 L9.12984,42.83376 L9.07336,42.78896 L9.01704,42.744 L8.96088,42.698864 L8.9048,42.653568 L8.84888,42.608112 L8.79312,42.562488 L8.73744,42.516704 L8.68192,42.470752 L8.62656,42.424632 L8.57136,42.37836 L8.51632,42.33192 L8.46136,42.28532 L8.40656,42.23856 L8.35192,42.191632 L8.29736,42.144552 L8.24304,42.097304 L8.1888,42.049896 L8.13472,42.002336 L8.0808,41.954608 L8.02696,41.906728 L7.97336,41.858688 L7.91984,41.810488 L7.86648,41.762128 L7.81328,41.713616 L7.76016,41.664944 L7.70728,41.616112 L7.65448,41.567128 L7.60184,41.517984 L7.54936,41.468688 L7.49704,41.419232 L7.44488,41.369624 L7.3928,41.319864 L7.34096,41.269952 L7.2892,41.21988 L7.2376,41.16968 L7.18616,41.11928 L7.13488,41.06872 L7.08376,41.01808 L7.0328,40.9672 L6.98192,40.91624 L6.93128,40.86512 L6.88072,40.81384 L6.83032,40.7624 L6.78012,40.7108 L6.730048,40.65904 L6.680136,40.6072 L6.630376,40.55512 L6.580768,40.50296 L6.531312,40.45064 L6.482016,40.39816 L6.432872,40.34552 L6.383888,40.29272 L6.335056,40.23984 L6.286384,40.18672 L6.237872,40.13352 L6.189512,40.08016 L6.141312,40.02664 L6.093272,39.97304 L6.045392,39.9192 L5.997664,39.86528 L5.950104,39.8112 L5.902696,39.75696 L5.855448,39.70264 L5.808368,39.64808 L5.76144,39.59344 L5.71468,39.53864 L5.66808,39.48368 L5.62164,39.42864 L5.575368,39.37344 L5.529248,39.31808 L5.483296,39.26256 L5.437512,39.20688 L5.391888,39.15112 L5.346432,39.0952 L5.301136,39.03912 L5.256,38.98296 L5.21104,38.92664 L5.16624,38.87016 L5.121608,38.81352 L5.077136,38.7568 L5.03284,38.69992 L4.988704,38.64288 L4.944736,38.58576 L4.900944,38.52848 L4.857312,38.47104 L4.813848,38.41344 L4.77056,38.35576 L4.727432,38.29792 L4.68448,38.24 L4.641696,38.18192 L4.599088,38.12368 L4.556648,38.06528 L4.514376,38.0068 L4.472272,37.94816 L4.430344,37.88944 L4.388592,37.83056 L4.347008,37.77152 L4.3056,37.7124 L4.264368,37.65312 L4.223304,37.59368 L4.182416,37.53416 L4.141704,37.47448 L4.10116,37.41472 L4.0608,37.3548 L4.020608,37.2948 L3.9806,37.23456 L3.94076,37.17432 L3.901104,37.11384 L3.861624,37.05328 L3.82232,36.99264 L3.783192,36.93184 L3.74424,36.87088 L3.705472,36.80984 L3.66688,36.74864 L3.628472,36.68736 L3.59024,36.62592 L3.552184,36.5644 L3.514312,36.50272 L3.476624,36.44096 L3.439112,36.37904 L3.401784,36.31696 L3.36464,36.2548 L3.32768,36.19256 L3.290896,36.13016 L3.254296,36.0676 L3.21788,36.00496 L3.181648,35.94224 L3.1456,35.87936 L3.109744,35.81632 L3.074064,35.7532 L3.038568,35.69 L3.003264,35.62664 L2.968144,35.5632 L2.933208,35.4996 L2.898456,35.43592 L2.863896,35.37208 L2.82952,35.30816 L2.795336,35.24408 L2.761336,35.17992 L2.727528,35.11568 L2.693912,35.05128 L2.66048,34.98672 L2.627232,34.92216 L2.594184,34.85736 L2.56132,34.79256 L2.528656,34.7276 L2.496176,34.66256 L2.463888,34.59736 L2.431792,34.53208 L2.399888,34.46664 L2.368176,34.40112 L2.336656,34.33552 L2.305328,34.26976 L2.2742,34.20392 L2.243264,34.138 L2.21252,34.07192 L2.181968,34.00576 L2.151616,33.93944 L2.121464,33.87304 L2.091496,33.80656 L2.061736,33.74 L2.032168,33.67328 L2.002792,33.60648 L1.973624,33.53952 L1.944648,33.47248 L1.915864,33.40536 L1.887288,33.33816 L1.858904,33.2708 L1.830728,33.20336 L1.802744,33.13584 L1.77496,33.06816 L1.747376,33.0004 L1.72,32.93256 L1.692816,32.86456 L1.66584,32.79656 L1.639064,32.7284 L1.612488,32.66008 L1.58612,32.59176 L1.559944,32.52328 L1.533984,32.45472 L1.508224,32.38608 L1.482664,32.31728 L1.457312,32.24848 L1.43216,32.17952 L1.407216,32.1104 L1.38248,32.04128 L1.357944,31.972 L1.333624,31.90272 L1.309504,31.83328 L1.285592,31.76368 L1.26188,31.69408 L1.238384,31.62432 L1.215096,31.55448 L1.192016,31.48456 L1.169144,31.41456 L1.14648,31.34448 L1.124032,31.27424 L1.101784,31.204 L1.079752,31.1336 L1.057928,31.06312 L1.03632,30.99248 L1.01492,30.92184 L0.993736,30.85112 L0.97276,30.78024 L0.951992,30.70928 L0.93144,30.63824 L0.911104,30.56712 L0.890984,30.49592 L0.871072,30.42464 L0.851376,30.35328 L0.831896,30.28176 L0.812632,30.21024 L0.793584,30.13856 L0.774752,30.0668 L0.756128,29.99504 L0.737728,29.92312 L0.719544,29.85112 L0.701584,29.77904 L0.683832,29.70688 L0.666304,29.63456 L0.648984,29.56224 L0.631896,29.48984 L0.615016,29.41736 L0.598368,29.34472 L0.581928,29.27208 L0.565712,29.19928 L0.54972,29.12648 L0.533944,29.05352 L0.5184,28.98056 L0.503064,28.90744 L0.48796,28.83432 L0.473072,28.76104 L0.458408,28.68768 L0.443968,28.61432 L0.42976,28.5408 L0.415768,28.46728 L0.402,28.3936 L0.388456,28.31992 L0.375136,28.24608 L0.362048,28.17224 L0.349176,28.09824 L0.336536,28.02424 L0.324128,27.95008 L0.311936,27.87592 L0.299984,27.80168 L0.288248,27.72736 L0.276744,27.65288 L0.265472,27.5784 L0.254424,27.50384 L0.243608,27.4292 L0.233024,27.35456 L0.222664,27.27976 L0.212536,27.20488 L0.20264,27.12992 L0.192976,27.05496 L0.183536,26.97992 L0.174336,26.90472 L0.165368,26.82952 L0.156624,26.75424 L0.14812,26.67888 L0.139848,26.60344 L0.131808,26.528 L0.12788,26.49016 L0.124008,26.4524 L0.120192,26.41456 L0.11644,26.3768 L0.112736,26.33896 L0.109104,26.30104 L0.10552,26.2632 L0.102,26.22528 L0.098536,26.18736 L0.095136,26.14944 L0.091792,26.11152 L0.088504,26.07352 L0.08528,26.0356 L0.082112,25.9976 L0.079008,25.9596 L0.07596,25.92152 L0.072968,25.88352 L0.07004,25.84544 L0.067168,25.80736 L0.064352,25.76928 L0.0616,25.73112 L0.058912,25.69304 L0.05628,25.65488 L0.053704,25.61672 L0.051192,25.57856 L0.048736,25.5404 L0.046344,25.50216 L0.044008,25.46392 L0.041728,25.42568 L0.039512,25.38744 L0.03736,25.3492 L0.035264,25.31088 L0.033232,25.27256 L0.031256,25.23424 L0.029336,25.19592 L0.02748,25.1576 L0.025688,25.1192 L0.023952,25.0808 L0.02228,25.0424 L0.020664,25.004 L0.019112,24.9656 L0.017616,24.92712 L0.016184,24.88872 L0.014808,24.85024 L0.013496,24.81176 L0.012248,24.7732 L0.011056,24.73472 L0.00992,24.69616 L0.008856,24.6576 L0.007848,24.61904 L0.006896,24.58048 L0.006008,24.54184 L0.005184,24.50328 L0.004416,24.46464 L0.003712,24.426 L0.003072,24.38736 L0.002488,24.34864 L0.001968,24.31 L0.001504,24.27128 L0.001104,24.23256 L0.000768,24.19384 L0.000488,24.15512 L0.00028,24.11632 L0.00012,24.0776 L3.2e-05,24.0388 L0,24 L3.2e-05,23.9612 L0.00012,23.9224 L0.00028,23.88368 L0.000488,23.84488 L0.000768,23.80616 L0.001104,23.76744 L0.001504,23.72872 L0.001968,23.69 L0.002488,23.65136 L0.003072,23.61264 L0.003712,23.574 L0.004416,23.53536 L0.005184,23.49672 L0.006008,23.45816 L0.006896,23.41952 L0.007848,23.38096 L0.008856,23.3424 L0.00992,23.30384 L0.011056,23.26528 L0.012248,23.2268 L0.013496,23.18824 L0.014808,23.14976 L0.016184,23.11128 L0.017616,23.07288 L0.019112,23.0344 L0.020664,22.996 L0.02228,22.9576 L0.023952,22.9192 L0.025688,22.8808 L0.02748,22.8424 L0.029336,22.80408 L0.031256,22.76576 L0.033232,22.72744 L0.035264,22.68912 L0.03736,22.6508 L0.039512,22.61256 L0.041728,22.57432 L0.044008,22.53608 L0.046344,22.49784 L0.048736,22.4596 L0.051192,22.42144 L0.053704,22.38328 L0.05628,22.34512 L0.058912,22.30696 L0.0616,22.26888 L0.064352,22.23072 L0.067168,22.19264 L0.07004,22.15456 L0.072968,22.11648 L0.07596,22.07848 L0.079008,22.0404 L0.082112,22.0024 L0.08528,21.9644 L0.088504,21.92648 L0.091792,21.88848 L0.095136,21.85056 L0.098536,21.81264 L0.102,21.77472 L0.10552,21.7368 L0.109104,21.69896 L0.112736,21.66104 L0.11644,21.6232 L0.120192,21.58544 L0.124008,21.5476 L0.12788,21.50984 L0.131808,21.472 L0.139848,21.39656 L0.14812,21.32112 L0.156624,21.24576 L0.165368,21.17048 L0.174336,21.09528 L0.183536,21.02008 L0.192976,20.94504 L0.20264,20.87008 L0.212536,20.79512 L0.222664,20.72024 L0.233024,20.64544 L0.243608,20.5708 L0.254424,20.49616 L0.265472,20.4216 L0.276744,20.34712 L0.288248,20.27264 L0.299984,20.19832 L0.311936,20.12408 L0.324128,20.04992 L0.336536,19.97576 L0.349176,19.90176 L0.362048,19.82776 L0.375136,19.75392 L0.388456,19.68008 L0.402,19.6064 L0.415768,19.53272 L0.42976,19.4592 L0.443968,19.38568 L0.458408,19.31232 L0.473072,19.23896 L0.48796,19.16568 L0.503064,19.09256 L0.5184,19.01944 L0.533944,18.94648 L0.54972,18.87352 L0.565712,18.80072 L0.581928,18.72792 L0.598368,18.65528 L0.615016,18.58264 L0.631896,18.51016 L0.648984,18.43776 L0.666304,18.36544 L0.683832,18.29312 L0.701584,18.22096 L0.719544,18.14888 L0.737728,18.07688 L0.756128,18.00496 L0.774752,17.9332 L0.793584,17.86144 L0.812632,17.78976 L0.831896,17.71824 L0.851376,17.64672 L0.871072,17.57536 L0.890984,17.50408 L0.911104,17.43288 L0.93144,17.36176 L0.951992,17.29072 L0.97276,17.21976 L0.993736,17.14888 L1.01492,17.07816 L1.03632,17.00752 L1.057928,16.93688 L1.079752,16.8664 L1.101784,16.796 L1.124032,16.72576 L1.14648,16.65552 L1.169144,16.58544 L1.192016,16.51544 L1.215096,16.44552 L1.238384,16.37568 L1.26188,16.30592 L1.285592,16.23632 L1.309504,16.16672 L1.333624,16.09728 L1.357944,16.028 L1.38248,15.95872 L1.407216,15.8896 L1.43216,15.82048 L1.457312,15.75152 L1.482664,15.68272 L1.508224,15.61392 L1.533984,15.54528 L1.559944,15.47672 L1.58612,15.40824 L1.612488,15.33992 L1.639064,15.2716 L1.66584,15.20344 L1.692816,15.13544 L1.72,15.06744 L1.747376,14.9996 L1.77496,14.93184 L1.802744,14.86416 L1.830728,14.79664 L1.858904,14.7292 L1.887288,14.66184 L1.915864,14.59464 L1.944648,14.52752 L1.973624,14.46048 L2.002792,14.39352 L2.032168,14.32672 L2.061736,14.26 L2.091496,14.19344 L2.121464,14.12696 L2.151616,14.06056 L2.181968,13.99424 L2.21252,13.92808 L2.243264,13.862 L2.2742,13.79608 L2.305328,13.73024 L2.336656,13.66448 L2.368176,13.59888 L2.399888,13.53336 L2.431792,13.46792 L2.463888,13.40264 L2.496176,13.33744 L2.528656,13.2724 L2.56132,13.20744 L2.594184,13.14264 L2.627232,13.07784 L2.66048,13.01328 L2.693912,12.94872 L2.727528,12.88432 L2.761336,12.82008 L2.795336,12.75592 L2.82952,12.69184 L2.863896,12.62792 L2.898456,12.56408 L2.933208,12.5004 L2.968144,12.4368 L3.003264,12.37336 L3.038568,12.31 L3.074064,12.2468 L3.109744,12.18368 L3.1456,12.12064 L3.181648,12.05776 L3.21788,11.99504 L3.254296,11.9324 L3.290896,11.86984 L3.32768,11.80744 L3.36464,11.7452 L3.401784,11.68304 L3.439112,11.62096 L3.476624,11.55904 L3.514312,11.49728 L3.552184,11.4356 L3.59024,11.37408 L3.628472,11.31264 L3.66688,11.25136 L3.705472,11.19016 L3.74424,11.12912 L3.783192,11.06816 L3.82232,11.00736 L3.861624,10.94672 L3.901104,10.88616 L3.94076,10.82568 L3.9806,10.76544 L4.020608,10.7052 L4.0608,10.6452 L4.10116,10.58528 L4.141704,10.52552 L4.182416,10.46584 L4.223304,10.40632 L4.264368,10.34688 L4.3056,10.2876 L4.347008,10.22848 L4.388592,10.16944 L4.430344,10.11056 L4.472272,10.05184 L4.514376,9.9932 L4.556648,9.93472 L4.599088,9.87632 L4.641696,9.81808 L4.68448,9.76 L4.727432,9.70208 L4.77056,9.64424 L4.813848,9.58656 L4.857312,9.52896 L4.900944,9.47152 L4.944736,9.41424 L4.988704,9.35712 L5.03284,9.30008 L5.077136,9.2432 L5.121608,9.18648 L5.16624,9.12984 L5.21104,9.07336 L5.256,9.01704 L5.301136,8.96088 L5.346432,8.9048 L5.391888,8.84888 L5.437512,8.79312 L5.483296,8.73744 L5.529248,8.68192 L5.575368,8.62656 L5.62164,8.57136 L5.66808,8.51632 L5.71468,8.46136 L5.76144,8.40656 L5.808368,8.35192 L5.855448,8.29736 L5.902696,8.24304 L5.950104,8.1888 L5.997664,8.13472 L6.045392,8.0808 L6.093272,8.02696 L6.141312,7.97336 L6.189512,7.91984 L6.237872,7.86648 L6.286384,7.81328 L6.335056,7.76016 L6.383888,7.70728 L6.432872,7.65448 L6.482016,7.60184 L6.531312,7.54936 L6.580768,7.49704 L6.630376,7.44488 L6.680136,7.3928 L6.730048,7.34096 L6.78012,7.2892 L6.83032,7.2376 L6.88072,7.18616 L6.93128,7.13488 L6.98192,7.08376 L7.0328,7.0328 L7.08376,6.98192 L7.13488,6.93128 L7.18616,6.88072 L7.2376,6.83032 L7.2892,6.78016 L7.34096,6.73008 L7.3928,6.68016 L7.44488,6.6304 L7.49704,6.5808 L7.54936,6.53128 L7.60184,6.482 L7.65448,6.43288 L7.70728,6.38392 L7.76016,6.33504 L7.81328,6.2864 L7.86648,6.23784 L7.91984,6.18952 L7.97336,6.14128 L8.02696,6.09328 L8.0808,6.04536 L8.13472,5.99768 L8.1888,5.95008 L8.24304,5.90272 L8.29736,5.85544 L8.35192,5.8084 L8.40656,5.76144 L8.46136,5.71472 L8.51632,5.66808 L8.57136,5.62168 L8.62656,5.57536 L8.68192,5.52928 L8.73744,5.48328 L8.79312,5.43752 L8.84888,5.39192 L8.9048,5.3464 L8.96088,5.30112 L9.01704,5.256 L9.07336,5.21104 L9.12984,5.16624 L9.18648,5.1216 L9.2432,5.07712 L9.30008,5.0328 L9.35712,4.98872 L9.41424,4.94472 L9.47152,4.90096 L9.52896,4.85728 L9.58656,4.81384 L9.64424,4.77056 L9.70208,4.72744 L9.76,4.68448 L9.81808,4.64168 L9.87632,4.59912 L9.93472,4.55664 L9.9932,4.5144 L10.05184,4.47224 L10.11056,4.43032 L10.16944,4.38856 L10.22848,4.34704 L10.2876,4.3056 L10.34688,4.2644 L10.40632,4.22328 L10.46584,4.1824 L10.52552,4.14168 L10.58528,4.1012 L10.6452,4.0608 L10.7052,4.02064 L10.76544,3.98056 L10.82568,3.9408 L10.88616,3.90112 L10.94672,3.8616 L11.00736,3.82232 L11.06816,3.7832 L11.12912,3.74424 L11.19016,3.70544 L11.25136,3.66688 L11.31264,3.62848 L11.37408,3.59024 L11.4356,3.55216 L11.49728,3.51432 L11.55904,3.47664 L11.62096,3.43912 L11.68304,3.40176 L11.7452,3.36464 L11.80744,3.32768 L11.86984,3.29088 L11.9324,3.25432 L11.99504,3.21792 L12.05776,3.18168 L12.12064,3.1456 L12.18368,3.10976 L12.2468,3.07408 L12.31,3.03856 L12.37336,3.00328 L12.4368,2.96816 L12.5004,2.9332 L12.56408,2.89848 L12.62792,2.86392 L12.69184,2.82952 L12.75592,2.79536 L12.82008,2.76136 L12.88432,2.72752 L12.94872,2.69392 L13.01328,2.66048 L13.07784,2.6272 L13.14264,2.59416 L13.20744,2.56136 L13.2724,2.52864 L13.33744,2.49616 L13.40264,2.46392 L13.46792,2.43176 L13.53336,2.39992 L13.59888,2.36816 L13.66448,2.33664 L13.73024,2.30536 L13.79608,2.27416 L13.862,2.24328 L13.92808,2.21248 L13.99424,2.182 L14.06056,2.1516 L14.12696,2.12144 L14.19344,2.09152 L14.26,2.06176 L14.32672,2.03216 L14.39352,2.0028 L14.46048,1.9736 L14.52752,1.94464 L14.59464,1.91584 L14.66184,1.88728 L14.7292,1.85888 L14.79664,1.83072 L14.86416,1.80272 L14.93184,1.77496 L14.9996,1.74736 L15.06744,1.72 L15.13544,1.6928 L15.20344,1.66584 L15.2716,1.63904 L15.33992,1.61248 L15.40824,1.58608 L15.47672,1.55992 L15.54528,1.534 L15.61392,1.50824 L15.68272,1.48264 L15.75152,1.45728 L15.82048,1.43216 L15.8896,1.4072 L15.95872,1.38248 L16.028,1.35792 L16.09728,1.3336 L16.16672,1.30952 L16.23632,1.2856 L16.30592,1.26192 L16.37568,1.2384 L16.44552,1.21512 L16.51544,1.192 L16.58544,1.16912 L16.65552,1.14648 L16.72576,1.124 L16.796,1.10176 L16.8664,1.07976 L16.93688,1.05792 L17.00752,1.03632 L17.07816,1.01496 L17.14888,0.99376 L17.21976,0.97272 L17.29072,0.952 L17.36176,0.93144 L17.43288,0.91112 L17.50408,0.89096 L17.57536,0.87104 L17.64672,0.85136 L17.71824,0.83192 L17.78976,0.81264 L17.86144,0.7936 L17.9332,0.77472 L18.00496,0.75616 L18.07688,0.73776 L18.14888,0.71952 L18.22096,0.7016 L18.29312,0.68384 L18.36544,0.66632 L18.43776,0.64896 L18.51016,0.63192 L18.58264,0.61504 L18.65528,0.5984 L18.72792,0.58192 L18.80072,0.56568 L18.87352,0.54976 L18.94648,0.53392 L19.01944,0.5184 L19.09256,0.50304 L19.16568,0.48792 L19.23896,0.47304 L19.31232,0.4584 L19.38568,0.444 L19.4592,0.42976 L19.53272,0.41576 L19.6064,0.402 L19.68008,0.38848 L19.75392,0.37512 L19.82776,0.36208 L19.90176,0.3492 L19.97576,0.33656 L20.04992,0.32416 L20.12408,0.31192 L20.19832,0.3 L20.27264,0.28824 L20.34712,0.27672 L20.4216,0.26544 L20.49616,0.2544 L20.5708,0.2436 L20.64544,0.23304 L20.72024,0.22264 L20.79512,0.21256 L20.87008,0.20264 L20.94504,0.19296 L21.02008,0.18352 L21.09528,0.17432 L21.17048,0.16536 L21.24576,0.15664 L21.32112,0.14816 L21.39656,0.13984 L21.472,0.13184 L21.50984,0.12784 L21.5476,0.124 L21.58544,0.12016 L21.6232,0.1164 L21.66104,0.11272 L21.69896,0.10912 L21.7368,0.10552 L21.77472,0.102 L21.81264,0.09856 L21.85056,0.09512 L21.88848,0.09176 L21.92648,0.08848 L21.9644,0.08528 L22.0024,0.08208 L22.0404,0.07904 L22.07848,0.07592 L22.11648,0.07296 L22.15456,0.07 L22.19264,0.0672 L22.23072,0.06432 L22.26888,0.0616 L22.30696,0.05888 L22.34512,0.05624 L22.38328,0.05368 L22.42144,0.0512 L22.4596,0.04872 L22.49784,0.04632 L22.53608,0.044 L22.57432,0.04176 L22.61256,0.03952 L22.6508,0.03736 L22.68912,0.03528 L22.72744,0.0332 L22.76576,0.03128 L22.80408,0.02936 L22.8424,0.02752 L22.8808,0.02568 L22.9192,0.02392 L22.9576,0.02224 L22.996,0.02064 L23.0344,0.01912 L23.07288,0.0176 L23.11128,0.01616 L23.14976,0.0148 L23.18824,0.01352 L23.2268,0.01224 L23.26528,0.01104 L23.30384,0.00992 L23.3424,0.00888 L23.38096,0.00784 L23.41952,0.00688 L23.45816,0.006 L23.49672,0.0052 L23.53536,0.0044 L23.574,0.00368 L23.61264,0.00304 L23.65136,0.00248 L23.69,0.002 L23.72872,0.00152 L23.76744,0.00112 L23.80616,0.0008 L23.84488,0.00048 L23.88368,0.00024 L23.9224,0.00016 L23.9612,0 L24,0 L24.0388,0 Z M23.96504,2.4 L23.93,2.40008 L23.89504,2.40024 L23.86016,2.40048 L23.8252,2.40072 L23.79024,2.40096 L23.75536,2.40136 L23.72048,2.40176 L23.68552,2.40224 L23.65072,2.4028 L23.61584,2.40336 L23.58104,2.404 L23.54624,2.40464 L23.51136,2.40544 L23.47656,2.40624 L23.44184,2.40704 L23.40704,2.408 L23.37232,2.40896 L23.3376,2.41 L23.30288,2.41104 L23.26816,2.41216 L23.23344,2.41336 L23.1988,2.41456 L23.16416,2.41584 L23.12952,2.4172 L23.09488,2.41864 L23.06024,2.42008 L23.02568,2.4216 L22.99104,2.42312 L22.95648,2.4248 L22.92192,2.42648 L22.88744,2.42816 L22.85288,2.42992 L22.8184,2.43176 L22.78392,2.43368 L22.74944,2.4356 L22.71496,2.4376 L22.68048,2.43968 L22.64608,2.44176 L22.61168,2.44392 L22.57728,2.44616 L22.54288,2.4484 L22.50848,2.45072 L22.47416,2.45312 L22.43984,2.45552 L22.40552,2.458 L22.3712,2.46048 L22.33688,2.46312 L22.30264,2.46576 L22.26832,2.4684 L22.23416,2.4712 L22.19992,2.474 L22.16568,2.4768 L22.13144,2.47976 L22.09728,2.48272 L22.06312,2.48568 L22.02904,2.4888 L21.9948,2.49192 L21.96072,2.49504 L21.92664,2.49824 L21.89256,2.50152 L21.85848,2.50488 L21.8244,2.50824 L21.7904,2.51168 L21.7564,2.5152 L21.72336,2.51864 L21.6544,2.52592 L21.58656,2.53344 L21.51872,2.54104 L21.45096,2.54896 L21.38328,2.55696 L21.3156,2.56528 L21.24808,2.57376 L21.18056,2.58248 L21.11312,2.59136 L21.04576,2.60048 L20.97848,2.60984 L20.91128,2.61936 L20.84408,2.62904 L20.77704,2.63904 L20.71,2.64912 L20.64304,2.65952 L20.57616,2.67008 L20.50936,2.6808 L20.44264,2.69176 L20.376,2.70296 L20.30936,2.71432 L20.24288,2.72592 L20.1764,2.73768 L20.11,2.74968 L20.04368,2.76184 L19.97744,2.77424 L19.91128,2.7868 L19.8452,2.7996 L19.77912,2.81256 L19.7132,2.82576 L19.64736,2.83912 L19.58152,2.85272 L19.51584,2.86648 L19.45016,2.88048 L19.38464,2.89464 L19.31912,2.90904 L19.25368,2.92368 L19.18832,2.9384 L19.12304,2.95344 L19.05784,2.96856 L18.99272,2.98392 L18.92768,2.99952 L18.86272,3.01528 L18.79776,3.0312 L18.73296,3.04736 L18.66824,3.06376 L18.6036,3.08032 L18.53904,3.09704 L18.47448,3.114 L18.41008,3.13112 L18.34568,3.1484 L18.28144,3.16592 L18.21728,3.1836 L18.15312,3.20152 L18.08912,3.21968 L18.02512,3.23792 L17.96128,3.2564 L17.89752,3.27504 L17.83376,3.29392 L17.77016,3.31296 L17.70664,3.33224 L17.6432,3.35168 L17.57984,3.37128 L17.51648,3.39112 L17.45328,3.41112 L17.39016,3.43128 L17.32712,3.45168 L17.26416,3.47224 L17.20136,3.49296 L17.13856,3.51392 L17.07584,3.53504 L17.0132,3.5564 L16.95072,3.57784 L16.88824,3.59952 L16.82592,3.62144 L16.7636,3.64352 L16.70144,3.66576 L16.63936,3.68816 L16.57728,3.7108 L16.51544,3.7336 L16.4536,3.75656 L16.39184,3.77976 L16.33016,3.80304 L16.26864,3.82664 L16.20712,3.85032 L16.14576,3.87424 L16.0844,3.89832 L16.0232,3.92256 L15.96216,3.94704 L15.90104,3.97168 L15.84016,3.9964 L15.77936,4.02144 L15.71856,4.04656 L15.65792,4.07192 L15.59736,4.09744 L15.53688,4.1232 L15.47648,4.14904 L15.41624,4.17512 L15.35608,4.20136 L15.29592,4.22776 L15.23592,4.2544 L15.17608,4.28112 L15.11624,4.30808 L15.05648,4.3352 L14.99688,4.36248 L14.93736,4.39 L14.87792,4.41768 L14.81864,4.44544 L14.75936,4.47352 L14.70024,4.50168 L14.6412,4.53 L14.58224,4.55856 L14.52344,4.58728 L14.46472,4.61616 L14.406,4.6452 L14.34752,4.6744 L14.28904,4.70376 L14.23072,4.73336 L14.17248,4.76312 L14.11432,4.79296 L14.05632,4.82304 L13.9984,4.85328 L13.94048,4.88376 L13.8828,4.91432 L13.8252,4.94512 L13.76768,4.976 L13.71024,5.00712 L13.65288,5.0384 L13.59568,5.06984 L13.53856,5.10144 L13.48152,5.1332 L13.42464,5.16512 L13.36784,5.19728 L13.31112,5.22952 L13.25456,5.26192 L13.19808,5.29456 L13.14168,5.32736 L13.08544,5.36024 L13.02928,5.39336 L12.9732,5.42664 L12.91728,5.46008 L12.86144,5.49368 L12.80576,5.52744 L12.75008,5.56136 L12.69456,5.59544 L12.6392,5.62968 L12.58392,5.66416 L12.52872,5.69872 L12.47368,5.73344 L12.41872,5.76832 L12.36384,5.80336 L12.30912,5.83864 L12.25448,5.874 L12.2,5.90952 L12.1456,5.94528 L12.09128,5.98112 L12.03712,6.01712 L11.98312,6.05328 L11.92912,6.08968 L11.87528,6.12616 L11.8216,6.1628 L11.768,6.1996 L11.71448,6.23656 L11.66112,6.27368 L11.60792,6.31096 L11.55472,6.3484 L11.50176,6.386 L11.4488,6.42376 L11.39608,6.46168 L11.34336,6.49976 L11.2908,6.53792 L11.2384,6.57632 L11.18608,6.61488 L11.13392,6.65352 L11.08184,6.69232 L11.02984,6.73136 L10.97808,6.77048 L10.92632,6.80976 L10.8748,6.8492 L10.82328,6.8888 L10.77192,6.92856 L10.72072,6.9684 L10.6696,7.00848 L10.61864,7.04872 L10.56776,7.08904 L10.51704,7.12952 L10.4664,7.17016 L10.41592,7.21096 L10.3656,7.25192 L10.31536,7.29296 L10.2652,7.33424 L10.21528,7.3756 L10.16536,7.41712 L10.11568,7.4588 L10.06608,7.50064 L10.01656,7.54264 L9.9672,7.58472 L9.918,7.62696 L9.86888,7.66936 L9.81992,7.71192 L9.77112,7.75464 L9.7224,7.79752 L9.67376,7.84048 L9.62536,7.8836 L9.57704,7.92688 L9.5288,7.97024 L9.4808,8.01384 L9.4328,8.05752 L9.38504,8.10136 L9.33736,8.14536 L9.28984,8.18944 L9.2424,8.23376 L9.19512,8.27816 L9.148,8.32272 L9.10104,8.36736 L9.05416,8.41224 L9.00744,8.45712 L8.9608,8.50224 L8.91432,8.54752 L8.868,8.59288 L8.82184,8.6384 L8.77576,8.684 L8.72984,8.72984 L8.68408,8.77576 L8.6384,8.82184 L8.59288,8.868 L8.54752,8.91432 L8.50224,8.9608 L8.45712,9.00744 L8.41224,9.05416 L8.36736,9.10096 L8.32272,9.148 L8.27816,9.19512 L8.23376,9.2424 L8.18944,9.28984 L8.14536,9.33736 L8.10136,9.38504 L8.05752,9.4328 L8.01384,9.48072 L7.97024,9.5288 L7.92688,9.57704 L7.8836,9.62536 L7.84048,9.67376 L7.79744,9.7224 L7.75464,9.77112 L7.71192,9.81992 L7.66944,9.86888 L7.62696,9.918 L7.58472,9.9672 L7.54264,10.01656 L7.50064,10.06608 L7.4588,10.11568 L7.41712,10.16536 L7.3756,10.21528 L7.33424,10.2652 L7.29296,10.31536 L7.25192,10.3656 L7.21096,10.41592 L7.17016,10.4664 L7.12952,10.51704 L7.08904,10.56776 L7.04872,10.61864 L7.00848,10.6696 L6.9684,10.72072 L6.92856,10.77192 L6.8888,10.82328 L6.8492,10.87472 L6.80976,10.92632 L6.770464,10.97808 L6.731336,11.02992 L6.692368,11.08184 L6.65352,11.13392 L6.614832,11.18608 L6.57632,11.2384 L6.53796,11.2908 L6.499744,11.34336 L6.461672,11.39608 L6.423776,11.4488 L6.386024,11.50176 L6.348424,11.55472 L6.310976,11.60792 L6.273696,11.66112 L6.236576,11.71448 L6.1996,11.768 L6.162792,11.8216 L6.126136,11.87528 L6.089632,11.92912 L6.053296,11.98304 L6.01712,12.03712 L5.981112,12.09128 L5.945256,12.1456 L5.909536,12.2 L5.873992,12.25448 L5.8386,12.30912 L5.803384,12.36384 L5.768336,12.41872 L5.733432,12.47368 L5.698704,12.52872 L5.66412,12.58392 L5.629704,12.6392 L5.595464,12.69456 L5.561368,12.75008 L5.527448,12.80576 L5.49368,12.86144 L5.46008,12.91728 L5.42664,12.97328 L5.393384,13.02928 L5.360288,13.08544 L5.327328,13.14176 L5.294568,13.19808 L5.261968,13.25456 L5.229528,13.31112 L5.197248,13.36784 L5.165136,13.42464 L5.1332,13.4816 L5.101432,13.53856 L5.069824,13.59568 L5.038376,13.65288 L5.00712,13.71024 L4.976016,13.76768 L4.945088,13.8252 L4.914336,13.8828 L4.883744,13.94048 L4.853328,13.99832 L4.823072,14.05632 L4.792992,14.11432 L4.763072,14.17248 L4.733344,14.23072 L4.703776,14.28904 L4.674392,14.34752 L4.645168,14.40608 L4.616112,14.46472 L4.587248,14.52344 L4.558536,14.58224 L4.530016,14.6412 L4.501656,14.70024 L4.47348,14.75936 L4.44548,14.81856 L4.417648,14.87792 L4.389992,14.93736 L4.36252,14.99688 L4.335224,15.05648 L4.30808,15.11624 L4.281128,15.17608 L4.25436,15.23592 L4.227768,15.29592 L4.201352,15.356 L4.175096,15.41624 L4.149048,15.47648 L4.123176,15.53688 L4.097456,15.59736 L4.071936,15.65792 L4.046584,15.71856 L4.021416,15.77936 L3.996432,15.84016 L3.971624,15.90112 L3.947008,15.96208 L3.922568,16.0232 L3.898304,16.08448 L3.874216,16.14576 L3.85032,16.20712 L3.826616,16.26856 L3.80308,16.33016 L3.77972,16.39184 L3.756552,16.4536 L3.733576,16.51536 L3.710784,16.57728 L3.68816,16.63936 L3.665728,16.70144 L3.643488,16.7636 L3.621432,16.82584 L3.599552,16.88824 L3.577864,16.95072 L3.556352,17.01328 L3.535048,17.07584 L3.513928,17.13848 L3.492984,17.20128 L3.472224,17.26416 L3.451656,17.32712 L3.431272,17.39024 L3.411088,17.45336 L3.391096,17.51648 L3.37128,17.57984 L3.351664,17.6432 L3.332232,17.70664 L3.312984,17.77016 L3.293936,17.83384 L3.275064,17.89752 L3.2564,17.96128 L3.237928,18.02512 L3.219632,18.08912 L3.201552,18.15312 L3.183656,18.2172 L3.165928,18.28144 L3.148408,18.34576 L3.131104,18.41 L3.113968,18.47448 L3.097032,18.53896 L3.080304,18.60352 L3.063736,18.66824 L3.047384,18.73296 L3.03124,18.79776 L3.015288,18.86264 L2.999512,18.92768 L2.983944,18.99272 L2.968584,19.05784 L2.9534,19.12304 L2.938416,19.18832 L2.923648,19.25368 L2.909072,19.31904 L2.89468,19.38464 L2.880488,19.45016 L2.866512,19.51584 L2.85272,19.58152 L2.839136,19.64736 L2.825744,19.7132 L2.81256,19.7792 L2.799576,19.8452 L2.786784,19.91128 L2.7742,19.97744 L2.761824,20.04368 L2.74964,20.11 L2.737664,20.1764 L2.725888,20.2428 L2.714312,20.30936 L2.702944,20.376 L2.691776,20.44264 L2.680816,20.50936 L2.670048,20.57624 L2.659496,20.64304 L2.649152,20.71 L2.639,20.77704 L2.629064,20.84408 L2.619336,20.91128 L2.609808,20.97848 L2.600488,21.04576 L2.591376,21.11312 L2.582472,21.18056 L2.573768,21.24808 L2.56528,21.3156 L2.557,21.3832 L2.54892,21.45096 L2.541056,21.51872 L2.533408,21.58656 L2.52596,21.6544 L2.518624,21.72328 L2.515176,21.7564 L2.511696,21.7904 L2.508256,21.82448 L2.50488,21.85848 L2.501552,21.89248 L2.49828,21.92656 L2.495048,21.9608 L2.491872,21.99496 L2.488768,22.02888 L2.485704,22.06312 L2.482688,22.09736 L2.479736,22.13152 L2.476832,22.1656 L2.473976,22.19984 L2.471176,22.23416 L2.468432,22.26832 L2.465736,22.30264 L2.463096,22.33696 L2.46052,22.37112 L2.457992,22.40544 L2.455504,22.43984 L2.45308,22.47416 L2.450704,22.50856 L2.448392,22.54288 L2.446128,22.57728 L2.44392,22.61168 L2.44176,22.64608 L2.439656,22.68048 L2.437608,22.71496 L2.435616,22.74936 L2.433664,22.78392 L2.431784,22.8184 L2.429952,22.8528 L2.428168,22.88744 L2.42644,22.922 L2.424776,22.95648 L2.423152,22.99104 L2.421592,23.02568 L2.42008,23.06024 L2.418624,23.09488 L2.417224,23.12952 L2.41588,23.16416 L2.414592,23.1988 L2.413352,23.23352 L2.412168,23.26816 L2.41104,23.3028 L2.409968,23.3376 L2.408952,23.37232 L2.407984,23.40712 L2.407072,23.44184 L2.406216,23.47664 L2.405416,23.51136 L2.404672,23.54616 L2.403984,23.58104 L2.403352,23.61584 L2.402768,23.6508 L2.40224,23.68552 L2.401776,23.72048 L2.40136,23.75536 L2.401,23.79016 L2.400696,23.8252 L2.40044,23.86016 L2.400248,23.89504 L2.400112,23.93 L2.400032,23.96496 L2.4,24 L2.400032,24.03504 L2.400112,24.07 L2.400248,24.10496 L2.40044,24.13984 L2.400696,24.1748 L2.401,24.20984 L2.40136,24.24464 L2.401776,24.27952 L2.40224,24.31448 L2.402768,24.3492 L2.403352,24.38416 L2.403984,24.41896 L2.404672,24.45384 L2.405416,24.48864 L2.406216,24.52336 L2.407072,24.55816 L2.407984,24.59288 L2.408952,24.62768 L2.409968,24.6624 L2.41104,24.6972 L2.412168,24.73184 L2.413352,24.76648 L2.414592,24.8012 L2.41588,24.83584 L2.417224,24.87048 L2.418624,24.90512 L2.42008,24.93976 L2.421592,24.97432 L2.423152,25.00896 L2.424776,25.04352 L2.42644,25.078 L2.428168,25.11256 L2.429952,25.1472 L2.431784,25.1816 L2.433664,25.21608 L2.435616,25.25064 L2.437608,25.28504 L2.439656,25.31952 L2.44176,25.35392 L2.44392,25.38832 L2.446128,25.42272 L2.448392,25.45712 L2.450704,25.49144 L2.45308,25.52584 L2.455504,25.56016 L2.457992,25.59456 L2.46052,25.62888 L2.463096,25.66304 L2.465736,25.69736 L2.468432,25.73168 L2.471176,25.76584 L2.473976,25.80016 L2.476832,25.8344 L2.479736,25.86848 L2.482688,25.90264 L2.485704,25.93688 L2.488768,25.97112 L2.491872,26.00504 L2.495048,26.0392 L2.49828,26.07344 L2.501552,26.10752 L2.50488,26.14152 L2.508256,26.17552 L2.511696,26.2096 L2.515176,26.2436 L2.518624,26.27672 L2.52596,26.3456 L2.533408,26.41344 L2.541056,26.48128 L2.54892,26.54904 L2.557,26.6168 L2.56528,26.6844 L2.573768,26.75192 L2.582472,26.81944 L2.591376,26.88688 L2.600488,26.95424 L2.609808,27.02152 L2.619336,27.08872 L2.629064,27.15592 L2.639,27.22296 L2.649152,27.29 L2.659496,27.35696 L2.670048,27.42376 L2.680816,27.49064 L2.691776,27.55736 L2.702944,27.624 L2.714312,27.69064 L2.725888,27.7572 L2.737664,27.8236 L2.74964,27.89 L2.761824,27.95632 L2.7742,28.02256 L2.786784,28.08872 L2.799576,28.1548 L2.81256,28.2208 L2.825744,28.2868 L2.839136,28.35264 L2.85272,28.41848 L2.866512,28.48416 L2.880488,28.54984 L2.89468,28.61536 L2.909072,28.68096 L2.923648,28.74632 L2.938416,28.81168 L2.9534,28.87696 L2.968584,28.94216 L2.983944,29.00728 L2.999512,29.07232 L3.015288,29.13736 L3.03124,29.20224 L3.047384,29.26704 L3.063736,29.33176 L3.080304,29.39648 L3.097032,29.46104 L3.113968,29.52552 L3.131104,29.59 L3.148408,29.65424 L3.165928,29.71856 L3.183656,29.7828 L3.201552,29.84688 L3.219632,29.91088 L3.237928,29.97488 L3.2564,30.03872 L3.275064,30.10248 L3.293936,30.16616 L3.312984,30.22984 L3.332232,30.29336 L3.351664,30.3568 L3.37128,30.42016 L3.391096,30.48352 L3.411088,30.54664 L3.431272,30.60976 L3.451656,30.67288 L3.472224,30.73584 L3.492984,30.79872 L3.513928,30.86152 L3.535048,30.92416 L3.556352,30.98672 L3.577864,31.04928 L3.599552,31.11176 L3.621432,31.17416 L3.643488,31.2364 L3.665728,31.29856 L3.68816,31.36064 L3.710784,31.42272 L3.733576,31.48464 L3.756552,31.5464 L3.77972,31.60816 L3.80308,31.66984 L3.826616,31.73144 L3.85032,31.79288 L3.874216,31.85424 L3.898304,31.91552 L3.922568,31.9768 L3.947008,32.03792 L3.971632,32.09888 L3.996432,32.15984 L4.021416,32.22064 L4.046584,32.28144 L4.071928,32.34208 L4.097464,32.40264 L4.123176,32.46312 L4.149048,32.52352 L4.175104,32.58376 L4.201344,32.644 L4.22776,32.70408 L4.254368,32.76408 L4.281136,32.824 L4.30808,32.88376 L4.335224,32.94352 L4.36252,33.00312 L4.389984,33.06264 L4.417648,33.12208 L4.445488,33.18144 L4.473472,33.24064 L4.501648,33.29976 L4.530016,33.3588 L4.558544,33.41776 L4.587248,33.47656 L4.616104,33.53528 L4.645168,33.59392 L4.674392,33.65248 L4.703776,33.71096 L4.733344,33.76928 L4.76308,33.82752 L4.793008,33.88568 L4.823064,33.94368 L4.853312,34.0016 L4.883736,34.05944 L4.914336,34.1172 L4.945096,34.17488 L4.976024,34.2324 L5.00712,34.28976 L5.038368,34.34704 L5.069832,34.40432 L5.101448,34.46144 L5.133184,34.5184 L5.165128,34.57536 L5.197256,34.63216 L5.22952,34.68888 L5.26196,34.74544 L5.294576,34.80192 L5.327336,34.85824 L5.360296,34.91456 L5.393376,34.97072 L5.426624,35.02672 L5.460096,35.08272 L5.493688,35.13856 L5.527432,35.19424 L5.561368,35.24992 L5.595456,35.30536 L5.629704,35.3608 L5.664136,35.41608 L5.698704,35.47128 L5.733432,35.52632 L5.768344,35.58128 L5.80336,35.63608 L5.838592,35.6908 L5.874016,35.74552 L5.909552,35.8 L5.94524,35.8544 L5.981112,35.90872 L6.01712,35.96288 L6.05328,36.01688 L6.089648,36.07088 L6.126136,36.12472 L6.162784,36.1784 L6.199616,36.232 L6.236568,36.28552 L6.27368,36.3388 L6.310968,36.39208 L6.348432,36.44528 L6.386048,36.49832 L6.423784,36.5512 L6.461656,36.60392 L6.49972,36.65656 L6.537968,36.7092 L6.576344,36.7616 L6.61484,36.81392 L6.653512,36.86608 L6.692352,36.91816 L6.731328,36.97008 L6.77048,37.02192 L6.80976,37.07368 L6.8492,37.12528 L6.8888,37.17672 L6.92856,37.22808 L6.9684,37.27928 L7.00848,37.3304 L7.04872,37.38136 L7.08904,37.43224 L7.12952,37.48296 L7.17016,37.5336 L7.21096,37.58408 L7.25192,37.6344 L7.29296,37.68464 L7.33424,37.7348 L7.3756,37.78472 L7.41712,37.83464 L7.4588,37.88432 L7.50064,37.93392 L7.54264,37.98344 L7.58472,38.0328 L7.62696,38.082 L7.66944,38.13112 L7.71192,38.18008 L7.75464,38.22888 L7.79744,38.2776 L7.84048,38.32624 L7.8836,38.37464 L7.92688,38.42296 L7.97024,38.4712 L8.01384,38.51928 L8.05752,38.5672 L8.10136,38.61496 L8.14536,38.66264 L8.18952,38.71016 L8.23376,38.75752 L8.27816,38.80488 L8.32272,38.852 L8.36736,38.89896 L8.41216,38.94584 L8.45712,38.99256 L8.50224,39.0392 L8.54752,39.08568 L8.59288,39.132 L8.6384,39.17816 L8.68408,39.22432 L8.72984,39.27016 L8.77576,39.31592 L8.82184,39.3616 L8.868,39.40712 L8.91432,39.45248 L8.96088,39.49776 L9.00744,39.54288 L9.05416,39.58776 L9.10104,39.63264 L9.148,39.67728 L9.1952,39.72184 L9.2424,39.76624 L9.28984,39.81056 L9.33736,39.85464 L9.38504,39.89864 L9.4328,39.94248 L9.48072,39.98616 L9.5288,40.02968 L9.57704,40.0732 L9.62536,40.1164 L9.67376,40.15952 L9.7224,40.20248 L9.77112,40.24536 L9.81992,40.28808 L9.86888,40.33056 L9.91792,40.37296 L9.9672,40.41528 L10.01656,40.45744 L10.06608,40.49936 L10.11568,40.5412 L10.16544,40.58288 L10.21528,40.6244 L10.2652,40.66576 L10.31536,40.70704 L10.36552,40.74808 L10.416,40.78904 L10.46648,40.82992 L10.51704,40.87048 L10.56776,40.91096 L10.61864,40.95136 L10.6696,40.99152 L10.72072,41.0316 L10.77192,41.07144 L10.82328,41.1112 L10.8748,41.1508 L10.9264,41.19024 L10.97808,41.22952 L11.02984,41.268648 L11.08184,41.307656 L11.13392,41.346464 L11.18608,41.38516 L11.2384,41.42368 L11.2908,41.46204 L11.34336,41.500248 L11.39608,41.53832 L11.44888,41.576248 L11.50176,41.613984 L11.55472,41.651552 L11.60792,41.689032 L11.6612,41.72632 L11.71456,41.76344 L11.768,41.800384 L11.8216,41.8372 L11.87536,41.87388 L11.92912,41.910328 L11.98312,41.946704 L12.03712,41.982888 L12.09128,42.018904 L12.1456,42.054776 L12.2,42.090464 L12.25448,42.125992 L12.30912,42.16136 L12.36384,42.196608 L12.41872,42.23168 L12.47368,42.26656 L12.52872,42.301288 L12.58392,42.335888 L12.6392,42.370304 L12.69456,42.404536 L12.75008,42.438624 L12.80576,42.472552 L12.86144,42.50632 L12.91736,42.539944 L12.97328,42.573352 L13.02928,42.606608 L13.08544,42.639712 L13.14168,42.672656 L13.19808,42.70544 L13.25456,42.738016 L13.31112,42.770464 L13.36784,42.80276 L13.42464,42.834872 L13.48152,42.8668 L13.53856,42.898568 L13.59568,42.93016 L13.65288,42.961608 L13.71024,42.992896 L13.76768,43.023984 L13.8252,43.054912 L13.8828,43.085664 L13.94048,43.116256 L13.9984,43.146688 L14.05632,43.176928 L14.11432,43.206992 L14.17248,43.236928 L14.23072,43.266656 L14.28904,43.296224 L14.34752,43.325624 L14.406,43.354824 L14.46472,43.383888 L14.52344,43.412752 L14.58224,43.44144 L14.6412,43.47 L14.70024,43.498328 L14.75936,43.52652 L14.81864,43.554536 L14.87792,43.582352 L14.93736,43.609992 L14.99688,43.637496 L15.05656,43.664808 L15.11624,43.691912 L15.17608,43.718872 L15.23592,43.745616 L15.29592,43.772232 L15.356,43.798656 L15.41624,43.82488 L15.47656,43.850976 L15.53688,43.87684 L15.59728,43.90252 L15.65792,43.928072 L15.71856,43.9534 L15.77928,43.978568 L15.84024,44.003584 L15.90104,44.028352 L15.96216,44.052992 L16.02328,44.077448 L16.0844,44.101696 L16.14568,44.125768 L16.20712,44.149672 L16.26864,44.173416 L16.33016,44.19692 L16.39176,44.220248 L16.4536,44.243456 L16.51544,44.26644 L16.57736,44.289224 L16.63936,44.31184 L16.70136,44.334248 L16.7636,44.356512 L16.82592,44.378592 L16.88824,44.40044 L16.95064,44.422112 L17.0132,44.44364 L17.07584,44.464944 L17.13856,44.48608 L17.20136,44.507032 L17.26416,44.527776 L17.3272,44.548352 L17.39024,44.568728 L17.45328,44.588896 L17.51656,44.608912 L17.57984,44.628736 L17.6432,44.648344 L17.70656,44.66776 L17.77016,44.687016 L17.83376,44.706064 L17.89752,44.72492 L17.96128,44.7436 L18.02512,44.762056 L18.08912,44.780368 L18.15312,44.798456 L18.21728,44.81636 L18.28144,44.834064 L18.34568,44.851576 L18.41008,44.868904 L18.4744,44.886024 L18.53896,44.902968 L18.6036,44.91972 L18.66824,44.936264 L18.73288,44.952592 L18.79776,44.968752 L18.86272,44.984728 L18.92768,45.000488 L18.99272,45.016048 L19.05784,45.031432 L19.12304,45.0466 L19.18832,45.061576 L19.25368,45.07636 L19.31904,45.090936 L19.38456,45.105304 L19.45016,45.119496 L19.51584,45.133496 L19.5816,45.14728 L19.64736,45.160872 L19.7132,45.174248 L19.7792,45.187432 L19.84528,45.200432 L19.91128,45.2132 L19.97744,45.225792 L20.04368,45.238176 L20.11,45.25036 L20.1764,45.262344 L20.2428,45.274112 L20.30936,45.285688 L20.376,45.297064 L20.44264,45.308224 L20.50936,45.319192 L20.57624,45.329952 L20.64304,45.340496 L20.71,45.350848 L20.77704,45.361008 L20.84408,45.370928 L20.9112,45.380656 L20.97856,45.390192 L21.04584,45.39952 L21.11312,45.408624 L21.18056,45.417528 L21.248,45.426224 L21.3156,45.43472 L21.38328,45.443 L21.45096,45.45108 L21.51872,45.458944 L21.58656,45.4666 L21.6544,45.47404 L21.72328,45.481376 L21.75632,45.484808 L21.79048,45.488312 L21.82456,45.491752 L21.8584,45.495112 L21.89248,45.498448 L21.92664,45.50172 L21.96072,45.504944 L21.9948,45.508112 L22.02904,45.511232 L22.0632,45.514296 L22.09736,45.517312 L22.13152,45.520272 L22.1656,45.523168 L22.19992,45.526024 L22.23416,45.528824 L22.26824,45.53156 L22.30256,45.534256 L22.33688,45.536896 L22.3712,45.539488 L22.4056,45.542024 L22.43976,45.544496 L22.47408,45.546912 L22.50848,45.549288 L22.54288,45.551608 L22.57736,45.553872 L22.61168,45.55608 L22.64616,45.55824 L22.68048,45.560344 L22.71488,45.562384 L22.74952,45.564392 L22.78392,45.566336 L22.8184,45.568216 L22.8528,45.570048 L22.88728,45.571824 L22.92192,45.573552 L22.95656,45.575232 L22.99104,45.576848 L23.0256,45.578408 L23.06032,45.57992 L23.09488,45.581376 L23.12944,45.582768 L23.16424,45.58412 L23.19888,45.585416 L23.23352,45.586648 L23.26816,45.587832 L23.3028,45.58896 L23.33768,45.590032 L23.3724,45.591056 L23.40696,45.592016 L23.44184,45.592928 L23.47664,45.593784 L23.51136,45.594576 L23.54616,45.595328 L23.58104,45.596016 L23.61584,45.596656 L23.65072,45.597232 L23.68568,45.59776 L23.72048,45.598232 L23.7552,45.59864 L23.79024,45.599 L23.8252,45.599312 L23.86,45.599552 L23.89512,45.599752 L23.93016,45.599888 L23.96496,45.599976 L24,45.6 L24.03504,45.599976 L24.06984,45.599888 L24.10488,45.599752 L24.14,45.599552 L24.1748,45.599312 L24.20976,45.599 L24.2448,45.59864 L24.27952,45.598232 L24.31432,45.59776 L24.34928,45.597232 L24.38416,45.596656 L24.41896,45.596016 L24.45384,45.595328 L24.48864,45.594576 L24.52336,45.593784 L24.55816,45.592928 L24.59304,45.592016 L24.6276,45.591056 L24.66232,45.590032 L24.6972,45.58896 L24.73184,45.587832 L24.76648,45.586648 L24.80112,45.585416 L24.83576,45.58412 L24.87056,45.582768 L24.90512,45.581376 L24.93968,45.57992 L24.9744,45.578408 L25.00896,45.576848 L25.04344,45.575232 L25.07808,45.573552 L25.11272,45.571824 L25.1472,45.570048 L25.1816,45.568216 L25.21608,45.566336 L25.25048,45.564392 L25.28512,45.562384 L25.31952,45.560344 L25.35384,45.55824 L25.38832,45.55608 L25.42264,45.553872 L25.45712,45.551608 L25.49152,45.549288 L25.52592,45.546912 L25.56024,45.544496 L25.5944,45.542024 L25.6288,45.539488 L25.66312,45.536896 L25.69744,45.534256 L25.73176,45.53156 L25.76584,45.528824 L25.80008,45.526024 L25.8344,45.523168 L25.86848,45.520272 L25.90264,45.517312 L25.9368,45.514296 L25.97096,45.511232 L26.0052,45.508112 L26.03928,45.504944 L26.07336,45.50172 L26.10752,45.498448 L26.1416,45.495112 L26.17544,45.491752 L26.20952,45.488312 L26.24368,45.484808 L26.27672,45.481376 L26.3456,45.47404 L26.41344,45.4666 L26.48128,45.458944 L26.54904,45.45108 L26.61672,45.443 L26.6844,45.43472 L26.752,45.426224 L26.81944,45.417528 L26.88688,45.408624 L26.95416,45.39952 L27.02144,45.390192 L27.0888,45.380656 L27.15592,45.370928 L27.22296,45.361008 L27.29,45.350848 L27.35696,45.340496 L27.42376,45.329952 L27.49064,45.319192 L27.55736,45.308224 L27.624,45.297064 L27.69064,45.285688 L27.7572,45.274112 L27.8236,45.262344 L27.89,45.25036 L27.95632,45.238176 L28.02256,45.225792 L28.08872,45.2132 L28.15472,45.200432 L28.2208,45.187432 L28.2868,45.174248 L28.35264,45.160872 L28.4184,45.14728 L28.48416,45.133496 L28.54984,45.119496 L28.61544,45.105304 L28.68096,45.090936 L28.74632,45.07636 L28.81168,45.061576 L28.87696,45.0466 L28.94216,45.031432 L29.00728,45.016048 L29.07232,45.000488 L29.13728,44.984728 L29.20224,44.968752 L29.26712,44.952592 L29.33176,44.936264 L29.3964,44.91972 L29.46104,44.902968 L29.5256,44.886024 L29.58992,44.868904 L29.65432,44.851576 L29.71856,44.834064 L29.78272,44.81636 L29.84688,44.798456 L29.91088,44.780368 L29.97488,44.762056 L30.03872,44.7436 L30.10248,44.72492 L30.16624,44.706064 L30.22984,44.687016 L30.29344,44.66776 L30.3568,44.648344 L30.42016,44.628736 L30.48344,44.608912 L30.54672,44.588896 L30.60976,44.568728 L30.6728,44.548352 L30.73584,44.527776 L30.79864,44.507032 L30.86144,44.48608 L30.92416,44.464944 L30.9868,44.44364 L31.04936,44.422112 L31.11176,44.40044 L31.17408,44.378592 L31.2364,44.356512 L31.29864,44.334248 L31.36064,44.31184 L31.42264,44.289224 L31.48456,44.26644 L31.5464,44.243456 L31.60824,44.220248 L31.66984,44.19692 L31.73136,44.173416 L31.79288,44.149672 L31.85432,44.125768 L31.9156,44.101696 L31.97672,44.077448 L32.03784,44.052992 L32.09896,44.028352 L32.15976,44.003584 L32.22072,43.978568 L32.28144,43.9534 L32.34208,43.928072 L32.40272,43.90252 L32.46312,43.87684 L32.52344,43.850976 L32.58376,43.82488 L32.644,43.798656 L32.70408,43.772232 L32.76408,43.745616 L32.824,43.718864 L32.88384,43.691904 L32.94344,43.664808 L33.00312,43.637496 L33.06264,43.61 L33.12208,43.582352 L33.18136,43.554528 L33.24064,43.526528 L33.29976,43.498344 L33.3588,43.47 L33.41776,43.441432 L33.47656,43.412752 L33.53528,43.383896 L33.594,43.354824 L33.65248,43.325624 L33.71096,43.296224 L33.76928,43.266656 L33.82752,43.23692 L33.88576,43.206976 L33.94368,43.176936 L34.0016,43.146712 L34.05944,43.116264 L34.1172,43.085664 L34.17488,43.054904 L34.2324,43.023976 L34.28976,42.992896 L34.34712,42.961608 L34.4044,42.930152 L34.46144,42.898568 L34.5184,42.866816 L34.57536,42.834872 L34.63216,42.80276 L34.68888,42.770472 L34.74544,42.738024 L34.80192,42.705424 L34.85832,42.672648 L34.91456,42.639704 L34.97072,42.606624 L35.02672,42.573376 L35.08272,42.53992 L35.13856,42.506312 L35.19424,42.472568 L35.24992,42.438632 L35.30536,42.404544 L35.3608,42.370296 L35.41608,42.33588 L35.47128,42.301288 L35.5264,42.266544 L35.58128,42.23168 L35.63608,42.196632 L35.69088,42.161376 L35.74552,42.125968 L35.8,42.090448 L35.85432,42.0548 L35.90872,42.018904 L35.96288,41.98288 L36.01688,41.94672 L36.07096,41.910312 L36.12464,41.87388 L36.1784,41.837208 L36.23208,41.800368 L36.28544,41.763456 L36.3388,41.72632 L36.39208,41.689032 L36.44528,41.651552 L36.49832,41.61396 L36.5512,41.576232 L36.60392,41.538344 L36.65656,41.50028 L36.7092,41.462032 L36.7616,41.423656 L36.81392,41.38516 L36.86608,41.346464 L36.91816,41.307672 L36.97008,41.268672 L37.022,41.229504 L37.07368,41.19024 L37.12528,41.1508 L37.17672,41.1112 L37.22808,41.07144 L37.27928,41.0316 L37.3304,40.99152 L37.38136,40.95136 L37.43224,40.91096 L37.48296,40.87048 L37.53352,40.82984 L37.584,40.78904 L37.63448,40.74808 L37.68464,40.70704 L37.7348,40.66576 L37.78472,40.6244 L37.83456,40.58288 L37.8844,40.5412 L37.93392,40.49944 L37.98344,40.45736 L38.0328,40.41528 L38.082,40.37296 L38.13112,40.33056 L38.18,40.28808 L38.22888,40.24536 L38.2776,40.20248 L38.32624,40.15952 L38.37472,40.1164 L38.42296,40.0732 L38.4712,40.02968 L38.51928,39.98608 L38.5672,39.94248 L38.61496,39.89864 L38.66264,39.85464 L38.71016,39.81056 L38.7576,39.76624 L38.80488,39.72184 L38.852,39.67728 L38.89896,39.63264 L38.94584,39.58784 L38.99256,39.54288 L39.03912,39.49776 L39.08568,39.45248 L39.132,39.40712 L39.17816,39.3616 L39.22432,39.31592 L39.27016,39.27016 L39.31592,39.22432 L39.3616,39.17816 L39.40712,39.132 L39.45248,39.08568 L39.49776,39.03912 L39.54288,38.99256 L39.58784,38.94584 L39.63264,38.89896 L39.67728,38.852 L39.72184,38.80488 L39.76624,38.7576 L39.81056,38.71016 L39.85464,38.66264 L39.89864,38.61496 L39.94248,38.5672 L39.98608,38.51928 L40.02968,38.4712 L40.0732,38.42296 L40.1164,38.37472 L40.15952,38.32624 L40.20248,38.2776 L40.24536,38.22888 L40.28808,38.18 L40.33056,38.13112 L40.37296,38.082 L40.41528,38.0328 L40.45736,37.98344 L40.49944,37.93392 L40.5412,37.8844 L40.58288,37.83456 L40.6244,37.78472 L40.66576,37.7348 L40.70704,37.68464 L40.74808,37.63448 L40.78904,37.584 L40.82984,37.53352 L40.87048,37.48296 L40.91096,37.43224 L40.95136,37.38136 L40.99152,37.3304 L41.0316,37.27928 L41.07144,37.22808 L41.1112,37.17672 L41.1508,37.12528 L41.19024,37.07368 L41.22952,37.022 L41.26864,36.97008 L41.30768,36.91816 L41.34648,36.86608 L41.38512,36.81392 L41.42368,36.7616 L41.462,36.7092 L41.50024,36.65656 L41.53832,36.60392 L41.57624,36.5512 L41.61392,36.49832 L41.65152,36.44528 L41.68904,36.39208 L41.72632,36.3388 L41.76344,36.28544 L41.8004,36.23208 L41.8372,36.1784 L41.87392,36.12464 L41.91032,36.07096 L41.94672,36.01688 L41.98288,35.96288 L42.01888,35.90872 L42.0548,35.85432 L42.09048,35.8 L42.126,35.74552 L42.16136,35.69088 L42.19664,35.63608 L42.23168,35.58128 L42.26656,35.5264 L42.30128,35.47128 L42.33584,35.41608 L42.37032,35.3608 L42.40456,35.30536 L42.43864,35.24992 L42.47256,35.19424 L42.50632,35.13856 L42.53992,35.08272 L42.57336,35.02672 L42.60664,34.97072 L42.63968,34.91456 L42.67264,34.85832 L42.70544,34.80192 L42.738,34.74544 L42.77048,34.68888 L42.8028,34.63216 L42.83488,34.57536 L42.8668,34.5184 L42.89856,34.46144 L42.93016,34.4044 L42.9616,34.34712 L42.99288,34.28976 L43.024,34.2324 L43.05488,34.17488 L43.08568,34.1172 L43.11624,34.05944 L43.14672,34.0016 L43.17696,33.94368 L43.20696,33.88576 L43.23688,33.82752 L43.26664,33.76928 L43.29624,33.71096 L43.3256,33.65248 L43.3548,33.594 L43.38392,33.53528 L43.41272,33.47656 L43.44144,33.41776 L43.47,33.3588 L43.49832,33.29976 L43.52656,33.24064 L43.55456,33.18136 L43.58232,33.12208 L43.61,33.06264 L43.63752,33.00312 L43.6648,32.94344 L43.69192,32.88384 L43.71888,32.824 L43.7456,32.76408 L43.77224,32.70408 L43.79864,32.644 L43.82488,32.58376 L43.85096,32.52344 L43.8768,32.46312 L43.90256,32.40272 L43.92808,32.34208 L43.95344,32.28144 L43.97856,32.22072 L44.0036,32.15976 L44.02832,32.09896 L44.05296,32.03792 L44.07744,31.97672 L44.10168,31.91552 L44.12576,31.85432 L44.14968,31.79288 L44.17344,31.73136 L44.19696,31.66984 L44.22024,31.60824 L44.24344,31.5464 L44.2664,31.48456 L44.2892,31.42264 L44.31184,31.36064 L44.33424,31.29864 L44.35656,31.23632 L44.37856,31.17408 L44.4004,31.11184 L44.42208,31.04936 L44.4436,30.9868 L44.46496,30.92416 L44.48608,30.86144 L44.50704,30.79864 L44.52776,30.73584 L44.54832,30.6728 L44.56872,30.60976 L44.58888,30.54672 L44.60888,30.48344 L44.62872,30.42016 L44.64832,30.3568 L44.66776,30.29344 L44.68704,30.22984 L44.70608,30.16616 L44.72496,30.10248 L44.7436,30.03872 L44.76208,29.97488 L44.7804,29.9108 L44.79848,29.84688 L44.81632,29.7828 L44.83408,29.71856 L44.8516,29.65432 L44.86888,29.58992 L44.886,29.5256 L44.90296,29.46104 L44.91968,29.3964 L44.93624,29.33176 L44.95256,29.26704 L44.96872,29.20224 L44.98472,29.13728 L45.00048,29.07232 L45.01608,29.00736 L45.03144,28.94216 L45.04664,28.87696 L45.0616,28.81168 L45.0764,28.74632 L45.09096,28.68096 L45.10528,28.61544 L45.11952,28.54984 L45.13352,28.48416 L45.14728,28.4184 L45.16088,28.35264 L45.17424,28.2868 L45.18744,28.2208 L45.2004,28.15472 L45.2132,28.0888 L45.22576,28.02256 L45.23816,27.95632 L45.25032,27.89 L45.26232,27.8236 L45.27408,27.7572 L45.28568,27.69056 L45.29704,27.624 L45.30824,27.55736 L45.3192,27.49064 L45.32992,27.42376 L45.34048,27.35696 L45.35088,27.29 L45.36104,27.22296 L45.37096,27.15592 L45.38064,27.0888 L45.39016,27.02144 L45.39952,26.95416 L45.40864,26.88688 L45.41752,26.81944 L45.42624,26.752 L45.43472,26.6844 L45.44304,26.61672 L45.45104,26.54904 L45.45896,26.48128 L45.46656,26.41344 L45.474,26.3456 L45.48136,26.27672 L45.4848,26.24368 L45.48832,26.20952 L45.49176,26.17544 L45.49512,26.1416 L45.49848,26.10752 L45.50168,26.07344 L45.50496,26.03928 L45.50808,26.00512 L45.5112,25.97104 L45.51432,25.9368 L45.51728,25.90264 L45.52024,25.86848 L45.5232,25.8344 L45.526,25.80016 L45.5288,25.76584 L45.53152,25.73176 L45.53424,25.69744 L45.53688,25.66312 L45.53952,25.6288 L45.542,25.5944 L45.54448,25.56016 L45.54688,25.52592 L45.54928,25.49152 L45.5516,25.45712 L45.55384,25.42264 L45.55608,25.38832 L45.55824,25.35384 L45.56032,25.31952 L45.5624,25.28512 L45.5644,25.25048 L45.56632,25.21608 L45.56824,25.1816 L45.57008,25.1472 L45.57184,25.11272 L45.57352,25.07808 L45.5752,25.04344 L45.57688,25.00896 L45.5784,24.9744 L45.57992,24.93968 L45.58136,24.90512 L45.5828,24.87056 L45.58416,24.83576 L45.58544,24.80112 L45.58664,24.76648 L45.58784,24.73184 L45.58896,24.6972 L45.59,24.66232 L45.59104,24.6276 L45.592,24.59304 L45.59296,24.55816 L45.59376,24.52336 L45.59456,24.48864 L45.59536,24.45384 L45.596,24.41896 L45.59664,24.38416 L45.5972,24.34928 L45.59776,24.31432 L45.59824,24.27952 L45.59864,24.2448 L45.59896,24.20976 L45.59928,24.1748 L45.59952,24.14 L45.59976,24.10488 L45.59992,24.06984 L45.6,24.03504 L45.6,24 L45.6,23.96496 L45.59992,23.93016 L45.59976,23.89512 L45.59952,23.86 L45.59928,23.8252 L45.59896,23.79024 L45.59864,23.7552 L45.59824,23.72048 L45.59776,23.68568 L45.5972,23.65072 L45.59664,23.61584 L45.596,23.58104 L45.59536,23.54616 L45.59456,23.51136 L45.59376,23.47664 L45.59296,23.44184 L45.592,23.40696 L45.59104,23.3724 L45.59,23.33768 L45.58896,23.3028 L45.58784,23.26816 L45.58664,23.23352 L45.58544,23.19888 L45.58416,23.16424 L45.5828,23.12944 L45.58136,23.09488 L45.57992,23.06032 L45.5784,23.0256 L45.57688,22.99104 L45.5752,22.95656 L45.57352,22.92192 L45.57184,22.88728 L45.57008,22.8528 L45.56824,22.8184 L45.56632,22.78392 L45.5644,22.74952 L45.5624,22.71488 L45.56032,22.68048 L45.55824,22.64616 L45.55608,22.61168 L45.55384,22.57736 L45.5516,22.54288 L45.54928,22.50848 L45.54688,22.47408 L45.54448,22.43984 L45.542,22.4056 L45.53952,22.3712 L45.53688,22.33688 L45.53424,22.30256 L45.53152,22.26824 L45.5288,22.23416 L45.526,22.19984 L45.5232,22.1656 L45.52024,22.13152 L45.51728,22.09736 L45.51432,22.0632 L45.5112,22.02896 L45.50808,21.99488 L45.50496,21.96072 L45.50168,21.92656 L45.49848,21.89248 L45.49512,21.8584 L45.49176,21.82456 L45.48832,21.79048 L45.4848,21.75632 L45.48136,21.72328 L45.474,21.6544 L45.46656,21.58656 L45.45896,21.51872 L45.45104,21.45096 L45.44304,21.38328 L45.43472,21.3156 L45.42624,21.248 L45.41752,21.18056 L45.40864,21.11312 L45.39952,21.04584 L45.39016,20.97856 L45.38064,20.9112 L45.37096,20.84408 L45.36104,20.77704 L45.35088,20.71 L45.34048,20.64304 L45.32992,20.57624 L45.3192,20.50936 L45.30824,20.44264 L45.29704,20.376 L45.28568,20.30944 L45.27408,20.2428 L45.26232,20.1764 L45.25032,20.11 L45.23816,20.04368 L45.22576,19.97744 L45.2132,19.9112 L45.2004,19.84528 L45.18744,19.7792 L45.17424,19.7132 L45.16088,19.64736 L45.14728,19.5816 L45.13352,19.51584 L45.11952,19.45016 L45.10528,19.38456 L45.09096,19.31904 L45.0764,19.25368 L45.0616,19.18832 L45.04664,19.12304 L45.03144,19.05784 L45.01608,18.99264 L45.00048,18.92768 L44.98472,18.86272 L44.96872,18.79776 L44.95256,18.73296 L44.93624,18.66824 L44.91968,18.6036 L44.90296,18.53896 L44.886,18.4744 L44.86888,18.41008 L44.8516,18.34568 L44.83408,18.28144 L44.81632,18.2172 L44.79848,18.15312 L44.7804,18.0892 L44.76208,18.02512 L44.7436,17.96128 L44.72496,17.89752 L44.70608,17.83384 L44.68704,17.77016 L44.66776,17.70656 L44.64832,17.6432 L44.62872,17.57984 L44.60888,17.51656 L44.58888,17.45328 L44.56872,17.39024 L44.54832,17.3272 L44.52776,17.26416 L44.50704,17.20136 L44.48608,17.13856 L44.46496,17.07584 L44.4436,17.0132 L44.42208,16.95064 L44.4004,16.88816 L44.37856,16.82592 L44.35656,16.76368 L44.33424,16.70136 L44.31184,16.63936 L44.2892,16.57736 L44.2664,16.51544 L44.24344,16.4536 L44.22024,16.39176 L44.19696,16.33016 L44.17344,16.26864 L44.14968,16.20712 L44.12576,16.14568 L44.10168,16.08448 L44.07744,16.02328 L44.05296,15.96208 L44.02832,15.90104 L44.0036,15.84024 L43.97856,15.77928 L43.95344,15.71856 L43.92808,15.65792 L43.90256,15.59736 L43.8768,15.53688 L43.85096,15.47656 L43.82488,15.41624 L43.79864,15.356 L43.77224,15.29592 L43.7456,15.23592 L43.71888,15.17608 L43.69192,15.11624 L43.6648,15.05656 L43.63752,14.99688 L43.61,14.93736 L43.58232,14.87792 L43.55456,14.81864 L43.52648,14.75936 L43.49832,14.70024 L43.47,14.6412 L43.44144,14.58224 L43.41272,14.52344 L43.38392,14.46472 L43.3548,14.406 L43.3256,14.34752 L43.29624,14.28904 L43.26664,14.23072 L43.23696,14.17248 L43.20696,14.11432 L43.17696,14.05632 L43.14672,13.9984 L43.11624,13.94048 L43.08568,13.8828 L43.05488,13.8252 L43.024,13.76768 L42.99288,13.71024 L42.9616,13.65288 L42.93016,13.59568 L42.89856,13.53856 L42.8668,13.4816 L42.83488,13.42464 L42.8028,13.36784 L42.77048,13.31112 L42.738,13.25456 L42.70544,13.19808 L42.67264,13.14168 L42.63968,13.08544 L42.60664,13.02928 L42.57336,12.97328 L42.53992,12.91736 L42.50632,12.86144 L42.47256,12.80576 L42.43864,12.75008 L42.40456,12.69456 L42.37032,12.6392 L42.33592,12.58392 L42.30128,12.52872 L42.26656,12.4736 L42.23168,12.41872 L42.19664,12.36384 L42.16136,12.30912 L42.126,12.25448 L42.09048,12.2 L42.0548,12.1456 L42.01888,12.09128 L41.98288,12.03712 L41.94672,11.98304 L41.91032,11.92912 L41.87392,11.87536 L41.8372,11.8216 L41.8004,11.768 L41.76344,11.71456 L41.72632,11.66112 L41.68904,11.60792 L41.65152,11.55472 L41.614,11.50176 L41.57624,11.44888 L41.53832,11.39608 L41.50024,11.34336 L41.46208,11.2908 L41.42368,11.2384 L41.3852,11.18608 L41.34648,11.13392 L41.30768,11.08184 L41.26864,11.02992 L41.22952,10.97808 L41.19024,10.9264 L41.1508,10.87472 L41.1112,10.82328 L41.07144,10.77192 L41.0316,10.72072 L40.99152,10.6696 L40.95136,10.61864 L40.91096,10.56776 L40.87048,10.51704 L40.82984,10.46648 L40.78904,10.416 L40.74808,10.36552 L40.70704,10.31536 L40.66576,10.2652 L40.6244,10.21528 L40.58288,10.16544 L40.5412,10.11568 L40.49936,10.06608 L40.45736,10.01656 L40.41528,9.9672 L40.37296,9.91792 L40.33056,9.86888 L40.28808,9.81992 L40.24536,9.77112 L40.20248,9.7224 L40.15952,9.67376 L40.1164,9.62528 L40.0732,9.57704 L40.02968,9.5288 L39.98616,9.48072 L39.94248,9.4328 L39.89864,9.38504 L39.85464,9.33736 L39.81056,9.28984 L39.76624,9.2424 L39.72184,9.19512 L39.67728,9.148 L39.63264,9.10104 L39.58776,9.05416 L39.5428,9.00736 L39.49776,8.96088 L39.45248,8.91432 L39.40712,8.868 L39.3616,8.82184 L39.31592,8.77576 L39.27016,8.72984 L39.22424,8.68408 L39.17816,8.6384 L39.132,8.59288 L39.08568,8.54752 L39.0392,8.50224 L38.99256,8.45712 L38.94584,8.41216 L38.89896,8.36736 L38.852,8.32272 L38.80488,8.27816 L38.7576,8.23376 L38.71016,8.18952 L38.66264,8.14536 L38.61496,8.10136 L38.5672,8.05752 L38.51928,8.01384 L38.4712,7.97024 L38.42296,7.92688 L38.37464,7.8836 L38.32624,7.84048 L38.2776,7.79752 L38.22896,7.75464 L38.18008,7.71192 L38.13112,7.66936 L38.082,7.62696 L38.0328,7.58472 L37.98344,7.54264 L37.93392,7.50064 L37.8844,7.4588 L37.83464,7.41712 L37.78472,7.3756 L37.7348,7.33424 L37.68464,7.29296 L37.6344,7.25192 L37.58408,7.21096 L37.5336,7.17016 L37.48296,7.12952 L37.43224,7.08904 L37.38136,7.04872 L37.3304,7.00848 L37.27928,6.9684 L37.228,6.92848 L37.17672,6.8888 L37.12528,6.8492 L37.07368,6.80976 L37.022,6.77048 L36.97008,6.73136 L36.91816,6.69232 L36.86608,6.65352 L36.81392,6.61488 L36.7616,6.57632 L36.7092,6.538 L36.65656,6.49968 L36.60392,6.46168 L36.5512,6.42376 L36.49832,6.386 L36.44528,6.3484 L36.39208,6.31096 L36.33888,6.27368 L36.28544,6.23656 L36.232,6.1996 L36.1784,6.1628 L36.12472,6.12616 L36.07088,6.08968 L36.01688,6.05328 L35.96288,6.01712 L35.90872,5.98112 L35.8544,5.9452 L35.8,5.90952 L35.74552,5.874 L35.69088,5.83856 L35.63608,5.80336 L35.58128,5.76832 L35.52632,5.73344 L35.47128,5.69872 L35.41608,5.66416 L35.3608,5.62968 L35.30536,5.59544 L35.24984,5.56136 L35.19424,5.52744 L35.13856,5.49368 L35.08272,5.46008 L35.02672,5.42664 L34.97072,5.39336 L34.91456,5.36032 L34.85832,5.32736 L34.80192,5.29456 L34.74544,5.26192 L34.6888,5.22952 L34.63216,5.19728 L34.57536,5.16512 L34.5184,5.1332 L34.46144,5.10144 L34.40432,5.06984 L34.34712,5.0384 L34.28976,5.00712 L34.2324,4.976 L34.17488,4.94512 L34.1172,4.91432 L34.05944,4.88376 L34.0016,4.85328 L33.94368,4.82304 L33.88568,4.79304 L33.82752,4.76312 L33.76928,4.73336 L33.71096,4.70376 L33.65248,4.6744 L33.594,4.6452 L33.53528,4.61608 L33.47656,4.58728 L33.41776,4.55856 L33.3588,4.53 L33.29976,4.50168 L33.24064,4.47344 L33.18144,4.44552 L33.12208,4.41768 L33.06264,4.39 L33.00312,4.36248 L32.94352,4.3352 L32.88376,4.30808 L32.824,4.28112 L32.76408,4.2544 L32.70408,4.22776 L32.64392,4.20136 L32.58376,4.17512 L32.52352,4.14904 L32.46312,4.1232 L32.40264,4.09744 L32.34208,4.07192 L32.28144,4.04656 L32.22064,4.02144 L32.15984,3.9964 L32.09896,3.97168 L32.03784,3.94704 L31.9768,3.92256 L31.9156,3.89832 L31.85424,3.87424 L31.79288,3.85032 L31.73136,3.82664 L31.66984,3.80304 L31.60816,3.77976 L31.5464,3.75656 L31.48456,3.7336 L31.42272,3.7108 L31.36064,3.68816 L31.29856,3.66576 L31.2364,3.64352 L31.17408,3.62144 L31.11176,3.59952 L31.04928,3.57784 L30.9868,3.5564 L30.92416,3.53504 L30.86144,3.51392 L30.79864,3.49296 L30.73584,3.47224 L30.67288,3.45168 L30.60984,3.43128 L30.54672,3.41112 L30.48352,3.39112 L30.42016,3.37128 L30.3568,3.35168 L30.29336,3.33224 L30.22984,3.31296 L30.16624,3.29392 L30.10248,3.27504 L30.03872,3.2564 L29.97488,3.23792 L29.91088,3.21968 L29.84688,3.20152 L29.78272,3.1836 L29.71856,3.16592 L29.65432,3.1484 L29.58992,3.13112 L29.52552,3.114 L29.46096,3.09704 L29.3964,3.08032 L29.33176,3.06376 L29.26704,3.04736 L29.20224,3.0312 L29.13728,3.01528 L29.07232,2.99952 L29.00728,2.98392 L28.94216,2.96856 L28.87696,2.95344 L28.81168,2.9384 L28.74632,2.92368 L28.68088,2.90904 L28.61536,2.89464 L28.54984,2.88048 L28.48416,2.86648 L28.41848,2.85272 L28.35264,2.83912 L28.2868,2.82576 L28.22088,2.81256 L28.1548,2.7996 L28.08872,2.7868 L28.02256,2.77424 L27.95632,2.76184 L27.89,2.74968 L27.8236,2.73768 L27.75712,2.72592 L27.69064,2.71432 L27.624,2.70296 L27.55736,2.69176 L27.49064,2.6808 L27.42384,2.67008 L27.35696,2.65952 L27.29,2.64912 L27.22296,2.63904 L27.15592,2.62904 L27.08872,2.61936 L27.02152,2.60984 L26.95424,2.60048 L26.88688,2.59136 L26.81944,2.58248 L26.75192,2.57376 L26.6844,2.56528 L26.61672,2.55696 L26.54904,2.54896 L26.48128,2.54104 L26.41344,2.53344 L26.3456,2.52592 L26.27664,2.51864 L26.2436,2.5152 L26.2096,2.51168 L26.1756,2.50824 L26.14152,2.50488 L26.10744,2.50152 L26.07336,2.49824 L26.03928,2.49504 L26.0052,2.49192 L25.97096,2.4888 L25.93688,2.48568 L25.90272,2.48272 L25.86856,2.47976 L25.83432,2.4768 L25.80008,2.474 L25.76584,2.4712 L25.73168,2.4684 L25.69736,2.46576 L25.66312,2.46312 L25.6288,2.46048 L25.59448,2.458 L25.56016,2.45552 L25.52584,2.45312 L25.49152,2.45072 L25.45712,2.4484 L25.42272,2.44616 L25.38832,2.44392 L25.35392,2.44176 L25.31952,2.43968 L25.28504,2.4376 L25.25056,2.4356 L25.21608,2.43368 L25.1816,2.43176 L25.14712,2.42992 L25.11256,2.42816 L25.07808,2.42648 L25.04352,2.4248 L25.00896,2.42312 L24.97432,2.4216 L24.93976,2.42008 L24.90512,2.41864 L24.87048,2.4172 L24.83584,2.41584 L24.8012,2.41456 L24.76656,2.41336 L24.73184,2.41216 L24.69712,2.41104 L24.6624,2.41 L24.62768,2.40896 L24.59296,2.408 L24.55816,2.40704 L24.52344,2.40624 L24.48864,2.40544 L24.45376,2.40464 L24.41896,2.404 L24.38416,2.40336 L24.34928,2.4028 L24.31448,2.40224 L24.27952,2.40176 L24.24464,2.40136 L24.20976,2.40096 L24.1748,2.40072 L24.13984,2.40048 L24.10496,2.40024 L24.07,2.40008 L24.03496,2.4 L24,2.4 L23.96504,2.4 Z" id="Fill-5" fill="#37B34A"></path>
                </g>
            </g>
        </g>
    </g>
</svg>